<svg xmlns="http://www.w3.org/2000/svg" viewBox="0 0 500 500"><g id="freepik--background-complete--inject-106"><path d="M263.21,77.8l-.21.3-.57.89c-.22.41-.46.94-.73,1.57a13.85,13.85,0,0,0-.58,2.29,15.46,15.46,0,0,0,.46,6.43,21.8,21.8,0,0,0,3.93,7.58,27.73,27.73,0,0,0,8,6.62,86.55,86.55,0,0,0,10.75,5.08c7.71,3.13,16.13,7.07,23.53,13.25A48.57,48.57,0,0,1,317,132.28a50.4,50.4,0,0,1,5.47,11.81c2.58,7.94,4.12,15.35,4.31,21.66a41.46,41.46,0,0,1-.49,8.47c-.16,1.24-.46,2.37-.68,3.42s-.58,2-.82,2.82a38.6,38.6,0,0,1-1.51,3.76l-.43,1a1.86,1.86,0,0,0-.13.34,2.21,2.21,0,0,0,.18-.32l.48-.94a34.58,34.58,0,0,0,1.61-3.75c.25-.85.58-1.78.86-2.82s.56-2.18.73-3.43a41.63,41.63,0,0,0,.57-8.53c-.14-6.36-1.66-13.83-4.22-21.79A50.56,50.56,0,0,0,317.4,132a48.42,48.42,0,0,0-9.32-10.6c-7.46-6.24-15.94-10.19-23.68-13.3a86.71,86.71,0,0,1-10.71-5,27.23,27.23,0,0,1-7.89-6.48,21.86,21.86,0,0,1-3.94-7.43,15.26,15.26,0,0,1-.53-6.32,12.31,12.31,0,0,1,.52-2.27c.24-.62.47-1.15.67-1.57l.53-.91A1.16,1.16,0,0,0,263.21,77.8Z" style="fill:#e0e0e0"></path><path d="M261.7,85c-6.37-3.19-11.8-9.78-15.51-15.85s-5.14-13.74-2.85-20.48,8.6-12.19,15.71-12.53c7.61-.36,14.75,5.14,17.67,12.17s.83,16.45-3.21,22.91C269,78.5,267.7,80.9,261.7,85" style="fill:#e0e0e0"></path><path d="M264.45,86.23a7.22,7.22,0,0,1-2.1-3.16l-.65.73a8.78,8.78,0,0,0-1.51,3.82c-.06.3,0,.68.23.83s.63-.1.8-.38a2.15,2.15,0,0,1,.56-.79,2.27,2.27,0,0,0,.16,1,.8.8,0,0,0,.81.48.79.79,0,0,0,.55-.79,2.18,2.18,0,0,0-.29-1,2.37,2.37,0,0,0,1,.81.82.82,0,0,0,1.06-.43C265.16,86.93,264.78,86.53,264.45,86.23Z" style="fill:#e0e0e0"></path><path d="M275.17,55.84a4.09,4.09,0,0,1,0,1.08c0,.69-.15,1.69-.35,2.91A38.91,38.91,0,0,1,267,77.36a26.86,26.86,0,0,1-1.93,2.21,4.36,4.36,0,0,1-.79.73c-.07-.06,1-1.19,2.43-3.17a44,44,0,0,0,7.74-17.37C274.94,57.35,275.08,55.83,275.17,55.84Z" style="fill:#f5f5f5"></path><path d="M273.88,47.82a5.48,5.48,0,0,1,.79,2.2,5.39,5.39,0,0,1,.27,2.32,5.31,5.31,0,0,1-.78-2.2A5.49,5.49,0,0,1,273.88,47.82Z" style="fill:#f5f5f5"></path><path d="M170.11,299.7s-.08.09-.21.29-.33.52-.58.89-.46.95-.72,1.58a13.59,13.59,0,0,0-.58,2.29,15.46,15.46,0,0,0,.45,6.43,22.15,22.15,0,0,0,3.93,7.58,27.87,27.87,0,0,0,8,6.62,85.13,85.13,0,0,0,10.75,5.07c7.72,3.13,16.14,7.07,23.53,13.25a48.67,48.67,0,0,1,9.23,10.48A50.4,50.4,0,0,1,229.34,366c2.58,7.93,4.12,15.35,4.31,21.65a42.14,42.14,0,0,1-.49,8.47c-.16,1.25-.46,2.37-.68,3.42s-.58,2-.82,2.82a38,38,0,0,1-1.51,3.77l-.43,1a1.37,1.37,0,0,0-.13.34l.17-.31.48-.95a35.14,35.14,0,0,0,1.61-3.74c.26-.85.59-1.78.87-2.83s.56-2.18.73-3.43a41.63,41.63,0,0,0,.57-8.53c-.15-6.35-1.66-13.82-4.22-21.79a50.93,50.93,0,0,0-5.5-11.94A48.92,48.92,0,0,0,215,343.3C207.52,337.07,199,333.12,191.3,330a87.57,87.57,0,0,1-10.72-5,27.47,27.47,0,0,1-7.89-6.47,22,22,0,0,1-3.94-7.43,15.62,15.62,0,0,1-.53-6.32,12.91,12.91,0,0,1,.53-2.27c.24-.63.47-1.16.67-1.58s.39-.68.53-.91A2.37,2.37,0,0,0,170.11,299.7Z" style="fill:#e0e0e0"></path><path d="M168.59,306.87c-6.36-3.19-11.79-9.78-15.51-15.85s-5.13-13.73-2.84-20.47S158.84,258.36,166,258c7.61-.37,14.74,5.13,17.67,12.17s.83,16.44-3.21,22.9c-4.56,7.3-5.82,9.7-11.82,13.78" style="fill:#e0e0e0"></path><path d="M171.34,308.12a7.14,7.14,0,0,1-2.09-3.16l-.65.73a9,9,0,0,0-1.52,3.83c-.05.3,0,.68.24.82s.63-.1.8-.37a2.18,2.18,0,0,1,.56-.8,2.24,2.24,0,0,0,.15,1,.8.8,0,0,0,.82.48.79.79,0,0,0,.55-.79,2.31,2.31,0,0,0-.29-1,2.38,2.38,0,0,0,1,.81.8.8,0,0,0,1.05-.44C172.05,308.82,171.67,308.43,171.34,308.12Z" style="fill:#e0e0e0"></path><path d="M182.07,277.73a4.12,4.12,0,0,1,0,1.08,27.13,27.13,0,0,1-.36,2.91,38.63,38.63,0,0,1-7.81,17.53,28.92,28.92,0,0,1-1.93,2.21c-.49.5-.76.76-.79.73s1-1.19,2.42-3.16a43.91,43.91,0,0,0,7.75-17.38C181.83,279.25,182,277.73,182.07,277.73Z" style="fill:#f5f5f5"></path><path d="M180.78,269.71a5.47,5.47,0,0,1,.78,2.21,5.3,5.3,0,0,1,.28,2.32,5.46,5.46,0,0,1-.78-2.2A5.34,5.34,0,0,1,180.78,269.71Z" style="fill:#f5f5f5"></path><path d="M39.48,161.4a5.83,5.83,0,0,1-.88.16,6.79,6.79,0,0,1-2.53-.19,8.09,8.09,0,0,1-3.54-1.9,7.13,7.13,0,0,1-2.34-4.72,8.2,8.2,0,0,1,2-6.07,6.27,6.27,0,0,1,3.06-2,4.62,4.62,0,0,1,1.93-.11,2.94,2.94,0,0,1,1.76,1,3.41,3.41,0,0,1,.15,4A6.11,6.11,0,0,1,35.68,154a8.53,8.53,0,0,1-8.35-1.93,8.41,8.41,0,0,1-2-8.3,7.27,7.27,0,0,1,2.28-3.56,4.6,4.6,0,0,1,1.88-.92,3.38,3.38,0,0,1,2,.2A2.77,2.77,0,0,1,33,140.85a2.81,2.81,0,0,1,.15,2,4.33,4.33,0,0,1-2.34,2.76,5.71,5.71,0,0,1-3.35.51,5.93,5.93,0,0,1-2.85-1.29,8.4,8.4,0,0,1-2.77-4.52,12.56,12.56,0,0,1-.28-4,16.8,16.8,0,0,1,.6-3.37.61.61,0,0,1,0,.22l-.11.65a20.54,20.54,0,0,0-.3,2.51,12.63,12.63,0,0,0,.33,4,8.29,8.29,0,0,0,2.73,4.36,5.71,5.71,0,0,0,2.72,1.2,5.43,5.43,0,0,0,3.17-.51,4,4,0,0,0,2.14-2.55,2.52,2.52,0,0,0-.13-1.71,2.47,2.47,0,0,0-1.3-1.18,3.17,3.17,0,0,0-1.83-.17,4.13,4.13,0,0,0-1.71.86,6.85,6.85,0,0,0-2.15,3.37,8,8,0,0,0,1.95,7.91,8.15,8.15,0,0,0,8,1.84,5.76,5.76,0,0,0,3.21-2.3,3.06,3.06,0,0,0-.1-3.52,2.69,2.69,0,0,0-1.55-.85,4.33,4.33,0,0,0-1.79.1,6,6,0,0,0-2.9,1.84,7.92,7.92,0,0,0-2,5.82,6.94,6.94,0,0,0,2.21,4.59,8.2,8.2,0,0,0,3.43,1.92,7.33,7.33,0,0,0,2.49.25C39.17,161.44,39.47,161.37,39.48,161.4Z" style="fill:#e0e0e0"></path><path d="M125.21,26.49a4.24,4.24,0,0,1,.78.41,7,7,0,0,1,1.86,1.73,8.11,8.11,0,0,1,1.57,3.7,7.14,7.14,0,0,1-1.13,5.15A8.19,8.19,0,0,1,122.94,41a6.28,6.28,0,0,1-3.61-.38,4.81,4.81,0,0,1-1.58-1.12A3,3,0,0,1,117,37.6a3.42,3.42,0,0,1,2.37-3.17,6.11,6.11,0,0,1,4.21.2,8.53,8.53,0,0,1,5.3,6.72,8.4,8.4,0,0,1-3.6,7.76,7.25,7.25,0,0,1-4,1.35,4.58,4.58,0,0,1-2-.45,3.43,3.43,0,0,1-1.48-1.44,2.71,2.71,0,0,1,.8-3.6,4.34,4.34,0,0,1,3.55-.69A5.8,5.8,0,0,1,125,46a6,6,0,0,1,1.42,2.79,8.4,8.4,0,0,1-.67,5.26,12.41,12.41,0,0,1-2.29,3.3,17,17,0,0,1-2.57,2.26s0-.06.16-.16l.49-.44a22.51,22.51,0,0,0,1.81-1.76,12.85,12.85,0,0,0,2.2-3.3,8.24,8.24,0,0,0,.6-5.1,5.7,5.7,0,0,0-1.37-2.64A5.49,5.49,0,0,0,122,44.6a4,4,0,0,0-3.27.65,2.34,2.34,0,0,0-.69,3.15,3.13,3.13,0,0,0,1.32,1.28,4.12,4.12,0,0,0,1.87.4A6.9,6.9,0,0,0,125,48.8a8,8,0,0,0,3.43-7.4A8.16,8.16,0,0,0,123.41,35a5.74,5.74,0,0,0-4-.21,3.05,3.05,0,0,0-2.12,2.81,2.6,2.6,0,0,0,.68,1.63,4.25,4.25,0,0,0,1.45,1,5.94,5.94,0,0,0,3.42.38,7.91,7.91,0,0,0,5.17-3.31,7,7,0,0,0,1.14-5,8,8,0,0,0-1.47-3.63A7.19,7.19,0,0,0,126,27C125.47,26.64,125.2,26.51,125.21,26.49Z" style="fill:#e0e0e0"></path><path d="M452,154.37a5,5,0,0,1-.66-.59,6.91,6.91,0,0,1-1.41-2.11,8.11,8.11,0,0,1-.67-4,7.13,7.13,0,0,1,2.29-4.75,8.17,8.17,0,0,1,6-2.14A6.2,6.2,0,0,1,461,142a4.56,4.56,0,0,1,1.27,1.45,3,3,0,0,1,.33,2,3.42,3.42,0,0,1-3,2.55,6.13,6.13,0,0,1-4-1.18,8.53,8.53,0,0,1-3.6-7.77,8.41,8.41,0,0,1,5.3-6.71,7.25,7.25,0,0,1,4.21-.38,4.58,4.58,0,0,1,1.88.91,3.51,3.51,0,0,1,1.1,1.74,2.77,2.77,0,0,1-.17,2,2.86,2.86,0,0,1-1.45,1.32,4.36,4.36,0,0,1-3.61-.15,5.83,5.83,0,0,1-2.47-2.34,6,6,0,0,1-.73-3,8.47,8.47,0,0,1,1.87-5,12.54,12.54,0,0,1,3-2.68,16.41,16.41,0,0,1,3-1.6.93.93,0,0,1-.2.12l-.58.31a22,22,0,0,0-2.17,1.3,12.61,12.61,0,0,0-2.9,2.69,8.23,8.23,0,0,0-1.77,4.83,5.65,5.65,0,0,0,.72,2.88,5.46,5.46,0,0,0,2.34,2.19,4,4,0,0,0,3.33.13,2.58,2.58,0,0,0,1.28-1.16,2.45,2.45,0,0,0,.12-1.75,3.06,3.06,0,0,0-1-1.54,4.16,4.16,0,0,0-1.73-.83,6.83,6.83,0,0,0-4,.37,8,8,0,0,0-5.05,6.4,8.15,8.15,0,0,0,3.43,7.4,5.73,5.73,0,0,0,3.78,1.12,3,3,0,0,0,2.72-2.24,2.58,2.58,0,0,0-.28-1.74,4.46,4.46,0,0,0-1.17-1.35,6,6,0,0,0-3.24-1.16,7.92,7.92,0,0,0-5.8,2,7,7,0,0,0-2.26,4.57,8,8,0,0,0,.59,3.88,7.27,7.27,0,0,0,1.33,2.12C451.81,154.16,452.05,154.35,452,154.37Z" style="fill:#e0e0e0"></path><path d="M244.45,301.88a5,5,0,0,1-.66-.59,6.8,6.8,0,0,1-1.41-2.12,8.09,8.09,0,0,1-.67-3.95,7.15,7.15,0,0,1,2.29-4.76,8.21,8.21,0,0,1,6-2.14,6.2,6.2,0,0,1,3.42,1.21,4.6,4.6,0,0,1,1.27,1.46,2.93,2.93,0,0,1,.33,2,3.4,3.4,0,0,1-3,2.54,6.12,6.12,0,0,1-4-1.17,8.52,8.52,0,0,1-3.6-7.77,8.4,8.4,0,0,1,5.3-6.71,7.17,7.17,0,0,1,4.21-.38,4.45,4.45,0,0,1,1.88.91,3.44,3.44,0,0,1,1.1,1.73,2.79,2.79,0,0,1-.17,2,2.84,2.84,0,0,1-1.45,1.31,4.32,4.32,0,0,1-3.61-.15,5.81,5.81,0,0,1-2.47-2.33,6,6,0,0,1-.73-3,8.45,8.45,0,0,1,1.87-5,12.39,12.39,0,0,1,3-2.69,15.87,15.87,0,0,1,3-1.59l-.2.11-.58.31a24.21,24.21,0,0,0-2.17,1.3,12.84,12.84,0,0,0-2.91,2.69,8.32,8.32,0,0,0-1.76,4.83,5.71,5.71,0,0,0,.72,2.89,5.52,5.52,0,0,0,2.34,2.19,4,4,0,0,0,3.33.13,2.52,2.52,0,0,0,1.27-1.16,2.39,2.39,0,0,0,.13-1.75,3.08,3.08,0,0,0-1-1.55,4.16,4.16,0,0,0-1.73-.83,6.92,6.92,0,0,0-4,.38,8,8,0,0,0-5.05,6.39,8.14,8.14,0,0,0,3.43,7.41,5.73,5.73,0,0,0,3.78,1.12,3,3,0,0,0,2.72-2.24,2.57,2.57,0,0,0-.28-1.74,4.24,4.24,0,0,0-1.17-1.35,5.92,5.92,0,0,0-3.24-1.16,7.88,7.88,0,0,0-5.8,2,7,7,0,0,0-2.26,4.56,8,8,0,0,0,.59,3.88,7.13,7.13,0,0,0,1.33,2.12C244.23,301.66,244.47,301.86,244.45,301.88Z" style="fill:#e0e0e0"></path><path d="M327.37,384.76a4.28,4.28,0,0,1-.66-.59,6.74,6.74,0,0,1-1.41-2.11,8.11,8.11,0,0,1-.67-4,7.13,7.13,0,0,1,2.29-4.75,8.21,8.21,0,0,1,6-2.15,6.34,6.34,0,0,1,3.43,1.21,4.72,4.72,0,0,1,1.27,1.46,2.94,2.94,0,0,1,.33,2,3.43,3.43,0,0,1-3,2.55,6.09,6.09,0,0,1-4-1.18,8.52,8.52,0,0,1-3.6-7.77,8.4,8.4,0,0,1,5.3-6.71,7.23,7.23,0,0,1,4.2-.38,4.46,4.46,0,0,1,1.88.91,3.47,3.47,0,0,1,1.1,1.74,2.82,2.82,0,0,1-.16,2,2.9,2.9,0,0,1-1.45,1.32,4.36,4.36,0,0,1-3.61-.16,5.75,5.75,0,0,1-2.47-2.33,5.88,5.88,0,0,1-.73-3,8.41,8.41,0,0,1,1.87-5,12.54,12.54,0,0,1,3-2.68,16.57,16.57,0,0,1,3-1.6s-.06.05-.19.12l-.58.3c-.51.28-1.26.69-2.17,1.3a12.91,12.91,0,0,0-2.91,2.7,8.19,8.19,0,0,0-1.76,4.82,5.59,5.59,0,0,0,.72,2.89,5.52,5.52,0,0,0,2.34,2.19A4,4,0,0,0,338,368a2.52,2.52,0,0,0,1.27-1.16,2.39,2.39,0,0,0,.13-1.75,3,3,0,0,0-1-1.54,4,4,0,0,0-1.72-.83,6.83,6.83,0,0,0-4,.37,8,8,0,0,0-5.05,6.39,8.15,8.15,0,0,0,3.42,7.41,5.77,5.77,0,0,0,3.79,1.12,3,3,0,0,0,2.72-2.24,2.64,2.64,0,0,0-.28-1.74,4.38,4.38,0,0,0-1.18-1.35,5.88,5.88,0,0,0-3.23-1.16,7.91,7.91,0,0,0-5.8,2,6.87,6.87,0,0,0-2.26,4.57,8,8,0,0,0,.59,3.88,7.28,7.28,0,0,0,1.32,2.12C327.15,384.55,327.39,384.74,327.37,384.76Z" style="fill:#e0e0e0"></path><path d="M425.17,54.11s-1.88-8-8.74-6.81l1.47-5.12S429.3,44,428,52.2Z" style="fill:#e0e0e0"></path><path d="M71.66,58.31s-1.88-8-8.73-6.81l1.46-5.12s11.4,1.86,10.09,10Z" style="fill:#e0e0e0"></path><path d="M465.29,217.23s-1.88-7.95-8.73-6.81L458,205.3s11.4,1.86,10.09,10Z" style="fill:#e0e0e0"></path><path d="M341,305s-1.88-7.94-8.73-6.8l1.46-5.12s11.4,1.85,10.09,10Z" style="fill:#e0e0e0"></path><path d="M302.49,47.87s-.06,8.16,6.87,8.68l-2.65,4.63s-10.63-4.52-7.41-12.13Z" style="fill:#e0e0e0"></path><path d="M54.65,342.21s-8.12.9-7.82,7.85L41.93,348s3.22-11.09,11.17-8.79Z" style="fill:#e0e0e0"></path><path d="M209.07,270.75s7.64,2.9,10.53-3.42l3.42,4.09s-7.92,8.4-14,2.73Z" style="fill:#e0e0e0"></path><path d="M210,123.77s7.63,2.9,10.53-3.42l3.42,4.08s-7.93,8.41-14,2.74Z" style="fill:#e0e0e0"></path><circle cx="168.41" cy="307.2" r="2.15" style="fill:#e0e0e0"></circle><circle cx="30.57" cy="267.72" r="2.15" style="fill:#e0e0e0"></circle><path d="M251.47,369.16a2.15,2.15,0,1,1-2.15-2.15A2.15,2.15,0,0,1,251.47,369.16Z" style="fill:#e0e0e0"></path><path d="M219.14,77.8A2.16,2.16,0,1,1,217,75.65,2.16,2.16,0,0,1,219.14,77.8Z" style="fill:#e0e0e0"></path><path d="M244.39,24.89a2.16,2.16,0,1,1-2.15-2.15A2.15,2.15,0,0,1,244.39,24.89Z" style="fill:#e0e0e0"></path><circle cx="383.82" cy="131.69" r="2.15" style="fill:#e0e0e0"></circle><path d="M470.36,83.07a2.15,2.15,0,1,1-2.15-2.15A2.15,2.15,0,0,1,470.36,83.07Z" style="fill:#e0e0e0"></path><path d="M162.14,359.79a2.15,2.15,0,1,1-2.15-2.15A2.15,2.15,0,0,1,162.14,359.79Z" style="fill:#e0e0e0"></path><path d="M138.71,147.24a2.15,2.15,0,1,1-2.15-2.15A2.15,2.15,0,0,1,138.71,147.24Z" style="fill:#e0e0e0"></path><path d="M67,98.51a2.16,2.16,0,1,1-2.16-2.15A2.16,2.16,0,0,1,67,98.51Z" style="fill:#e0e0e0"></path><path d="M340.25,267.27a2.16,2.16,0,1,1-2.16-2.15A2.16,2.16,0,0,1,340.25,267.27Z" style="fill:#e0e0e0"></path><path d="M464.54,277.93a2.16,2.16,0,1,1-2.15-2.16A2.16,2.16,0,0,1,464.54,277.93Z" style="fill:#e0e0e0"></path></g><g id="freepik--Floor--inject-106"><path d="M464.2,475.57c0,.15-88.69.26-198.06.26s-198.07-.11-198.07-.26,88.66-.26,198.07-.26S464.2,475.43,464.2,475.57Z" style="fill:#263238"></path></g><g id="freepik--Plant--inject-106"><polygon points="199.05 440.68 204.36 475.57 235.2 475.57 242.36 441.19 199.05 440.68" style="fill:#407BFF"></polygon><path d="M238.05,463c0,.1-7.9.19-17.65.19s-17.65-.09-17.65-.19,7.9-.18,17.65-.18S238.05,463,238.05,463Z" style="fill:#fafafa"></path><path d="M238.17,461.33c0,.1-8,.18-17.77.18s-17.77-.08-17.77-.18,8-.18,17.77-.18S238.17,461.23,238.17,461.33Z" style="fill:#fafafa"></path><path d="M238.11,459.39c0,.1-8,.18-17.77.18s-17.78-.08-17.78-.18,8-.18,17.78-.18S238.11,459.29,238.11,459.39Z" style="fill:#fafafa"></path><path d="M207.9,473.58a27.62,27.62,0,0,1-.94-4.39,27.07,27.07,0,0,1-.59-4.45,29,29,0,0,1,.94,4.39A27.07,27.07,0,0,1,207.9,473.58Z" style="fill:#fafafa"></path><path d="M210,473.21a34.11,34.11,0,0,1-.38-4.28,32.05,32.05,0,0,1-.2-4.3,21.28,21.28,0,0,1,.56,4.27A20.67,20.67,0,0,1,210,473.21Z" style="fill:#fafafa"></path><path d="M213.82,473.21a22.41,22.41,0,0,1-.8-4.39,21,21,0,0,1-.23-4.46,40.09,40.09,0,0,1,.59,4.41A34.78,34.78,0,0,1,213.82,473.21Z" style="fill:#fafafa"></path><path d="M216.51,473.4a35.31,35.31,0,0,1-.29-8.95,133.46,133.46,0,0,1,.29,8.95Z" style="fill:#fafafa"></path><path d="M221.26,473.21a25.25,25.25,0,0,1-.32-4.23,25.62,25.62,0,0,1,0-4.26,48.84,48.84,0,0,1,.29,8.49Z" style="fill:#fafafa"></path><path d="M224.73,473.4a55,55,0,0,1,.07-8.77,52.05,52.05,0,0,1-.07,8.77Z" style="fill:#fafafa"></path><path d="M228,472.93a29.56,29.56,0,0,1,.26-4.58,30.27,30.27,0,0,1,.62-4.55,28.14,28.14,0,0,1-.26,4.58A28.8,28.8,0,0,1,228,472.93Z" style="fill:#fafafa"></path><path d="M232.18,472.47a16.1,16.1,0,0,1,.52-3.89,15.43,15.43,0,0,1,1.15-3.76,35.76,35.76,0,0,1-.79,3.83A31.05,31.05,0,0,1,232.18,472.47Z" style="fill:#fafafa"></path><path d="M195.51,433.77v6.53a2.57,2.57,0,0,0,2.57,2.57h44.67a2.57,2.57,0,0,0,2.57-2.57v-6.53Z" style="fill:#407BFF"></path><g style="opacity:0.4"><polygon points="199.38 442.87 199.75 444.95 240.97 447.89 242.01 442.87 199.38 442.87"></polygon></g><path d="M202.24,433.81s-17.37-20-15.44-20.74,17.37,10.37,17.37,10.37-13.27-29.67-10.62-31.84,16.65,26.29,16.65,26.29-2.18-41.49,0-42,10.13,41.49,10.13,41.49,11.81-38.35,15.19-38.35S231.9,416,231.9,416s14-23.64,16.16-20.5-9.89,28.7-9.89,28.7,17.61-14.71,18.33-12.78-19.05,22.43-19.05,22.43Z" style="fill:#455a64"></path><path d="M199.81,403.66c.12-.06,3.2,6.55,6.88,14.75s6.57,14.89,6.45,14.94-3.2-6.55-6.88-14.75S199.69,403.71,199.81,403.66Z" style="fill:#263238"></path><path d="M213.84,407.35c.13,0,.64,5.81,1.14,13s.8,13,.67,13-.64-5.81-1.14-13S213.71,407.36,213.84,407.35Z" style="fill:#263238"></path><path d="M233.19,388.77a1.66,1.66,0,0,1-.1.47l-.38,1.32c-.36,1.21-.86,2.84-1.45,4.83-1.23,4.08-2.87,9.73-4.55,16s-3.06,12-4,16.15c-.48,2-.87,3.69-1.15,4.91-.13.54-.24,1-.33,1.34a2.92,2.92,0,0,1-.14.46,1.57,1.57,0,0,1,.05-.48q.09-.54.24-1.35c.21-1.18.55-2.87,1-4.95.88-4.17,2.22-9.91,3.9-16.2s3.38-11.93,4.68-16c.66-2,1.21-3.66,1.6-4.79l.47-1.29A2.14,2.14,0,0,1,233.19,388.77Z" style="fill:#263238"></path><path d="M241.56,410.15c.11.08-3.28,5.13-7.57,11.29s-7.85,11.09-8,11,3.28-5.13,7.57-11.29S241.45,410.08,241.56,410.15Z" style="fill:#263238"></path><path d="M208.1,433.38a6.4,6.4,0,0,1-1.52-1.08,44,44,0,0,1-3.31-3.05,41.5,41.5,0,0,1-3-3.38,6.57,6.57,0,0,1-1.05-1.55c.11-.09,1.91,2.1,4.35,4.59S208.19,433.27,208.1,433.38Z" style="fill:#263238"></path><path d="M218.64,425.43a36.18,36.18,0,0,1,.76,8.3,18.36,18.36,0,0,1-.62-4.13A19.09,19.09,0,0,1,218.64,425.43Z" style="fill:#263238"></path></g><g id="freepik--speech-bubble--inject-106"><path d="M157.11,169.75c-.13-1.35-17.18-41.15-17.18-41.15l33.69,4.49,8.87-29.1L209.72,120,226.57,87l26.26,26.62,22.49-31.33L299.44,115l20.95-28.44,15.73,30.82,31.55-3.5-14.42,32.23,36.38,23L349.44,179.9,354,212.72l-29.3-10.84L314.38,232l-27.6-31-7.43,44.49-30.56-29.86-23.22,40.81-17.06-37.22-38.62,26.32-.89-42.4L104.7,203Z" style="fill:#fafafa"></path><path d="M157.11,169.75s-1.15.75-3.42,2.2-5.65,3.61-10.09,6.43l-38.83,24.68-.07-.22L169,203h.17v.17c.28,13.06.59,27.31.91,42.39l-.29-.15L208.4,219l.2-.14.1.22c5.35,11.67,11.12,24.24,17.08,37.22l-.4,0,23.2-40.81.15-.27.22.21,30.57,29.86-.41.13c2.34-14,4.86-29.11,7.42-44.5l.09-.52.35.4,27.6,31.05-.43.08c3.25-9.5,6.75-19.78,10.3-30.15l.08-.25.25.09,29.3,10.84-.35.28c-1.16-8.36-2.4-17.33-3.64-26.36l-.9-6.46,0-.23.22-.06,40.19-10.81-.07.47-36.38-23-.19-.12.09-.2,14.43-32.23.26.35-31.55,3.5-.17,0-.08-.15L320.17,86.69l.41,0-20.95,28.44-.19.26-.19-.26Q286.8,98.23,275.14,82.4h.36L253,113.72l-.14.2-.18-.17L226.43,87.11l.32,0q-8.87,17.35-16.87,33.06l-.09.17-.16-.1-27.22-16.07.23-.09-8.89,29.1,0,.11h-.12l-33.69-4.53.11-.14c5.67,13.28,10,23.56,12.89,30.53,1.44,3.48,2.53,6.13,3.23,7.93.35.89.59,1.58.77,2s.18.62.2.7c0-.08-.09-.26-.23-.69s-.44-1.13-.8-2c-.71-1.79-1.82-4.43-3.27-7.91-2.92-6.95-7.28-17.22-13-30.49l-.07-.17.18,0,33.7,4.47-.15.09,8.85-29.11.06-.19.17.1,27.24,16-.25.07q8-15.69,16.84-33.07l.12-.24.19.19L253,113.45l-.32,0,22.48-31.34.18-.25.18.25,24.13,32.74h-.38l20.94-28.45.23-.31.18.35q7.72,15.11,15.74,30.82l-.25-.13,31.55-3.51.44-.05-.18.41-14.42,32.23-.09-.33,36.38,23,.5.32-.57.15-40.19,10.81.19-.28c.3,2.15.59,4.3.89,6.46,1.25,9,2.49,18,3.64,26.36l.06.43-.4-.15-29.3-10.84.34-.16c-3.55,10.37-7.06,20.65-10.31,30.15l-.14.41-.29-.32-27.6-31.06L287,201c-2.57,15.38-5.1,30.49-7.44,44.49l-.07.46-.34-.32-30.56-29.87.37,0-23.22,40.8-.22.38-.18-.39L208.32,219.3l.31.08L170,245.69l-.29.19v-.35c-.31-15.08-.6-29.33-.87-42.4l.17.17-64.3-.22h-.42l.36-.22,38.86-24.55,10.14-6.39Z" style="fill:#263238"></path><path d="M267.63,133.54l2,31a5,5,0,0,0,4.72,4.71h0a5,5,0,0,0,5.3-4.47l3.45-31.17a4,4,0,0,0-4-4.38l-7.57.1A4,4,0,0,0,267.63,133.54Z" style="fill:#e0e0e0"></path><path d="M282.53,186.7a7.57,7.57,0,1,1-4.79-9.57A7.57,7.57,0,0,1,282.53,186.7Z" style="fill:#e0e0e0"></path><path d="M251.38,173,233.87,157.6a3.78,3.78,0,0,0-5,0h0a3.77,3.77,0,0,0-.44,5.18l14.72,18.38a3,3,0,0,0,4.44.21l4-4.07A3,3,0,0,0,251.38,173Z" style="fill:#e0e0e0"></path><path d="M215.24,152.71a5.68,5.68,0,1,1,7.62,2.53A5.68,5.68,0,0,1,215.24,152.71Z" style="fill:#e0e0e0"></path></g><g id="freepik--Text--inject-106"><path d="M194.06,177.76,188.44,179l-.54,2.84-2.15.47,2.6-12.35,2.06-.44,7.53,10.13-2.19.47ZM193,176.27l-3.19-4.45-1,5.37Z"></path><path d="M206.9,165.9l2.45,11.24-1.72.38-7.86-6.26,1.67,7.61-2.07.45-2.46-11.24,1.72-.37,7.86,6.26-1.67-7.62Z"></path><path d="M219.9,163.06l2.46,11.24-1.72.38-7.86-6.26,1.66,7.61-2.07.45-2.46-11.24,1.72-.37,7.86,6.25-1.66-7.61Z"></path><path d="M223.34,168.2a6.21,6.21,0,1,1,7.32,4.45A5.9,5.9,0,0,1,223.34,168.2Zm10-2.19a4,4,0,1,0-3.09,4.81A3.93,3.93,0,0,0,233.35,166Z"></path><path d="M237.73,165.81l-1.39-6.34,2.09-.46,1.37,6.26c.5,2.32,1.76,3.08,3.58,2.69s2.62-1.62,2.11-3.93l-1.36-6.26,2.05-.45,1.39,6.34c.71,3.27-.74,5.46-3.81,6.13S238.44,169.09,237.73,165.81Z"></path><path d="M259.09,154.5l2.46,11.24-1.72.37L252,159.85l1.66,7.62-2.07.45-2.46-11.24,1.72-.38,7.86,6.26L257,155Z"></path><path d="M262.53,159.63a6.23,6.23,0,0,1,9.62-6.19L271.08,155a4,4,0,0,0-3.29-.66,4,4,0,1,0,4.43,5.91l1.63,1a6.22,6.22,0,0,1-11.32-1.62Z"></path><path d="M284.28,158.93l.38,1.75-8.43,1.85-2.45-11.24,8.2-1.8.39,1.75-6.12,1.34.64,2.92,5.42-1.18.38,1.71-5.43,1.19.68,3.1Z"></path><path d="M297.32,157.92l-1.65-7.45-2.34,7-.93.21-5-5.26,1.6,7.35-2,.44-2.45-11.24,1.71-.38,6.09,6.47,2.76-8.4,1.72-.38,2.47,11.24Z"></path><path d="M310.37,153.23l.38,1.75-8.43,1.84-2.45-11.23,8.2-1.8.38,1.75-6.11,1.34.64,2.92,5.42-1.19.38,1.72-5.43,1.19.68,3.1Z"></path><path d="M320.61,141.05l2.46,11.24-1.72.38-7.86-6.26,1.66,7.61-2.07.45-2.46-11.24,1.72-.37,7.86,6.25-1.66-7.61Z"></path><path d="M326.29,141.66l-3.72.81-.39-1.76,9.54-2.09.39,1.77-3.73.81,2.07,9.48-2.09.45Z"></path></g><g id="freepik--character-1--inject-106"><path d="M126.57,339.13c.21,1.45,22,46.85,22.2,56.52s-6.64,15.47-8.71,17.55-60.24,52.28-60.24,52.28l-5.7-7.06L116,391.62s-12-40.87-12-40.25-6.64-19.5-6.64-19.5Z" style="fill:#263238"></path><path d="M81.06,455.74l-10.67,8.39s19.94,7.49,20.17,11.44l-41.42-.14.12-3.35,2.94-7.72A32.82,32.82,0,0,1,59,453.54l8.74-9.31Z" style="fill:#407BFF"></path><path d="M58.15,462.31A1.68,1.68,0,0,0,57,464.23a1.63,1.63,0,0,0,1.9,1.19,1.79,1.79,0,0,0,1.23-2.05,1.69,1.69,0,0,0-2.11-1" style="fill:#e0e0e0"></path><g style="opacity:0.6000000000000001"><path d="M49.14,475.43l.12-3.35,39.67,1.39s1.84.81,1.63,2.1Z" style="fill:#fff"></path></g><path d="M70.71,464c0,.2-1,.29-2,.93s-1.53,1.5-1.72,1.42.12-1.25,1.34-2S70.75,463.85,70.71,464Z" style="fill:#263238"></path><path d="M73.94,465.2c0,.2-.83.54-1.52,1.39s-.9,1.76-1.1,1.75-.32-1.15.55-2.2S73.93,465,73.94,465.2Z" style="fill:#263238"></path><path d="M76.39,470.41c-.19,0-.47-1,.06-2.07S77.92,466.79,78,467s-.5.76-.91,1.68S76.59,470.39,76.39,470.41Z" style="fill:#263238"></path><path d="M72,462.88c-.19.07-.65-.78-1.51-1.53s-1.75-1.13-1.7-1.33,1.16-.1,2.17.8S72.22,462.84,72,462.88Z" style="fill:#263238"></path><path d="M75.17,460.48c-.19.07-.65-.78-1.52-1.53s-1.75-1.13-1.7-1.33,1.16-.1,2.17.8S75.35,460.44,75.17,460.48Z" style="fill:#263238"></path><path d="M77.68,347.59l4.91,10.86a26.24,26.24,0,0,0,8.92,10.71h0l13.1,28L59.42,448.77l16.85,16.47s45.06-39,51-43.84c14.12-11.52,6.68-36.85,5.53-41.37-.93-3.65-12.84-42.88-12.84-42.88l-27-11.1Z" style="fill:#263238"></path><path d="M84.41,196.85c-1.83-1.24-3.94-2.33-4.93-4.32-.9-1.82-.72-4.18-2.12-5.65-1.73-1.82-4.9-1.29-6.84-2.87-.93-.77-1.47-1.94-2.4-2.72-1.59-1.32-4-1.16-5.89-.44s-3.67,1.94-5.62,2.59c-2.69.9-5.75.74-8.17,2.2-2.68,1.62-3.79,4.64-5,7.61l-1.72,3.52a11.13,11.13,0,0,1-1.29,1.75,20.72,20.72,0,0,0-2.6,2.79,5,5,0,0,0,2.13,6.9,5.33,5.33,0,0,0-2.18,6,15.31,15.31,0,0,0,1.84,3.27,5.36,5.36,0,0,1,1,3.55A2.36,2.36,0,0,1,38,223.06a5.61,5.61,0,0,0,3.91,2.86A3.34,3.34,0,0,1,40,227.46c3.57,4.64,10.31,5.81,16,4.37s10.54-5,15.25-8.47l14.22-7.92c1.26-.66,1.39-2.43,1-3.8s-1.1-2.71-.94-4.12c.21-1.93,2-3.4,2.27-5.33C88,200,86.24,198.1,84.41,196.85Z" style="fill:#263238"></path><path d="M51.94,220.14a65.14,65.14,0,0,1-5.42-9.81,22.67,22.67,0,0,1-1.87-10.94c.06-.56.8-4.43,1.36-4.51s.22,3.41.51,3.7a19.24,19.24,0,0,1,4.87,10.33,50.84,50.84,0,0,1,.55,11.23" style="fill:#263238"></path><path d="M83.2,218.45c-.79-4.27-3.15-12.94-5.37-20.76a16.77,16.77,0,0,0-19.4-11.85l-.85.17c-9.08,2.37-12.14,11.39-9.53,20.4l8.86,36,21.68-2.36s-2.31-9.64-2.29-9.64S84.85,227.3,83.2,218.45Z" style="fill:#ffbe9d"></path><path d="M76.3,230.43a21.79,21.79,0,0,1-12.17-1.11s4.08,5.86,12.73,3.31Z" style="fill:#eb996e"></path><path d="M76.78,204.76a1.29,1.29,0,0,1-1,1.51,1.23,1.23,0,0,1-1.52-.88,1.28,1.28,0,0,1,1-1.51A1.23,1.23,0,0,1,76.78,204.76Z" style="fill:#263238"></path><path d="M76.67,201.73c-.12.2-1.22-.32-2.57,0s-2.22,1.14-2.4,1,0-.39.39-.79a3.54,3.54,0,0,1,1.87-1,3.38,3.38,0,0,1,2.09.25C76.53,201.37,76.73,201.64,76.67,201.73Z" style="fill:#263238"></path><path d="M64.46,207.85a1.28,1.28,0,0,1-1,1.51,1.24,1.24,0,0,1-1.53-.88,1.29,1.29,0,0,1,1-1.51A1.21,1.21,0,0,1,64.46,207.85Z" style="fill:#263238"></path><path d="M63.5,204.93c-.13.19-1.22-.32-2.58-.05s-2.21,1.15-2.39,1,0-.39.38-.79a3.5,3.5,0,0,1,1.88-1,3.33,3.33,0,0,1,2.09.24C63.36,204.57,63.56,204.84,63.5,204.93Z" style="fill:#263238"></path><path d="M70.44,214.38a8.74,8.74,0,0,1,2.12-.84c.34-.1.65-.24.66-.49a1.73,1.73,0,0,0-.43-1l-1.55-2.43c-2.17-3.47-3.81-6.35-3.67-6.44a47.28,47.28,0,0,1,4.18,6.13l1.51,2.46a2.06,2.06,0,0,1,.45,1.32.87.87,0,0,1-.47.62,2.3,2.3,0,0,1-.57.2A9.31,9.31,0,0,1,70.44,214.38Z" style="fill:#263238"></path><path d="M62.33,199.44c-.06.39-1.45.49-3,1s-2.75,1.2-3,.91c-.12-.14,0-.53.48-1a5.51,5.51,0,0,1,4.6-1.46C62,199,62.35,199.25,62.33,199.44Z" style="fill:#263238"></path><path d="M75.21,197.34c-.18.35-1.17.22-2.3.43s-2,.62-2.32.34c-.12-.14,0-.48.32-.85a3.25,3.25,0,0,1,1.77-.88,3.19,3.19,0,0,1,1.95.26C75.09,196.87,75.29,197.17,75.21,197.34Z" style="fill:#263238"></path><path d="M50.08,212.8c-.17,0-6.42-.59-5,5.41s7.13,3.36,7.1,3.18S50.08,212.8,50.08,212.8Z" style="fill:#ffbe9d"></path><path d="M49.79,219.55s-.09.09-.25.22a1.09,1.09,0,0,1-.78.19c-.68-.08-1.45-1-1.73-2a3.61,3.61,0,0,1-.06-1.56,1.27,1.27,0,0,1,.6-1,.56.56,0,0,1,.69.14c.12.15.11.28.14.28s.1-.13,0-.37a.7.7,0,0,0-.32-.32.88.88,0,0,0-.62,0,1.51,1.51,0,0,0-.87,1.19,3.58,3.58,0,0,0,0,1.75,2.79,2.79,0,0,0,2.13,2.24,1.17,1.17,0,0,0,.92-.38C49.81,219.69,49.81,219.55,49.79,219.55Z" style="fill:#eb996e"></path><path d="M71.56,188.72c.84-.77-2.82-3.2-5.47-3.7-4-.77-9.72-.44-12.81,1.3-3.71,2.1-6.55,4.88-7.68,9A24.25,24.25,0,0,0,45.87,208a7.33,7.33,0,0,0,1.73,3.46c1.15,1.12,3,1.56,3.33,3.4A2.53,2.53,0,0,0,52,216.51c1.38.9,2.45-.52,2.8-1.77.75-2.66.22-5.49-.32-8.2a17.75,17.75,0,0,0-1.75-5.6c-.53-.93-1.23-1.75-1.71-2.71a3.71,3.71,0,0,1-.3-3.09,3.8,3.8,0,0,1,.37-.61,6.4,6.4,0,0,1,5.9-2.67c3.66.38,9.84.76,11.07-.74a9.55,9.55,0,0,0,2-3.37Z" style="fill:#263238"></path><path d="M53.4,185.43a13.55,13.55,0,0,1,10.24-1.89,7,7,0,0,1,4.57,3.1,4,4,0,0,1-.84,5.12l-.1.1c-2.35,1.48-4.09,1.54-6.85,1.27-2.32-.22-4.54-1.08-6.86-1.29a12.52,12.52,0,0,0-7.17,1.51A20.54,20.54,0,0,1,53.4,185.43Z" style="fill:#263238"></path><path d="M43.1,229.76s.22,0,.61-.16a3.14,3.14,0,0,0,1.39-1,3.92,3.92,0,0,0,.83-2.59,7.55,7.55,0,0,0-1.16-3.49c-.69-1.2-1.68-2.39-2.49-3.86a7.59,7.59,0,0,1-.9-2.44,4.9,4.9,0,0,1,.24-2.77,5.91,5.91,0,0,1,1.89-2.23,15.65,15.65,0,0,0,2.23-1.9,8.68,8.68,0,0,0,1.78-5.69c0-2.11-.32-4.18-.38-6.22a11,11,0,0,1,1.08-5.75,7.36,7.36,0,0,1,4.11-3.33,9.62,9.62,0,0,1,4.61-.38A14.25,14.25,0,0,1,63,190.61c.63.47,1.09.87,1.4,1.14a2.91,2.91,0,0,1,.45.45,3.66,3.66,0,0,1-.5-.38c-.33-.25-.81-.63-1.45-1.07a14.7,14.7,0,0,0-6-2.54,9.32,9.32,0,0,0-4.44.42,7,7,0,0,0-3.87,3.17,10.74,10.74,0,0,0-1,5.55c.06,2,.43,4.07.39,6.24a9.09,9.09,0,0,1-1.9,6,15.8,15.8,0,0,1-2.29,1.95A5.42,5.42,0,0,0,42,213.56a4.61,4.61,0,0,0-.24,2.54,8,8,0,0,0,.84,2.34c.78,1.43,1.75,2.63,2.44,3.87A7.52,7.52,0,0,1,46.18,226a4.1,4.1,0,0,1-.94,2.71,3.21,3.21,0,0,1-1.51,1A1.88,1.88,0,0,1,43.1,229.76Z" style="fill:#455a64"></path><path d="M59.55,183.45a3.85,3.85,0,0,1,1.86-.29,7.16,7.16,0,0,1,6.75,5.36,3.69,3.69,0,0,1,.14,1.87c-.07,0-.09-.71-.45-1.78a7.37,7.37,0,0,0-6.46-5.13C60.27,183.38,59.56,183.52,59.55,183.45Z" style="fill:#455a64"></path><path d="M73.19,185.66a3.17,3.17,0,0,1,1.11,2,3.28,3.28,0,0,1,0,2.29c-.13,0-.08-1-.38-2.18S73.08,185.73,73.19,185.66Z" style="fill:#455a64"></path><path d="M54.35,234.85l.85,2.82S48.62,253.38,51,268s30.38,91.76,30.38,91.76,6.12-21.75,19-20.39,27.87,2,27.87,2l-25.15-67.65L78.62,238.27S62.5,232.47,54.35,234.85Z" style="fill:#407BFF"></path><path d="M57.52,251.05c.17-1.47-.26.6,0,0Z" style="fill:#407BFF"></path><path d="M128.39,243l-16.33-1.48-2.72,21L75.53,246.59s-13.06-6.76-18,4.46c-3.27,10.79.82,18.25,11.84,22.39,15,5.66,45.25,14.58,49,13.88,5.28-1,8.65-4.52,9.56-12.48C128.46,269.92,128.39,243,128.39,243Z" style="fill:#407BFF"></path><path d="M72.34,216.72l-3.41.55a1.28,1.28,0,0,0-.52.17,1,1,0,0,0-.34.71,2.5,2.5,0,0,0,1,2.22,3,3,0,0,0,2.45.43A1.86,1.86,0,0,0,73,219.59,5.61,5.61,0,0,0,72.34,216.72Z" style="fill:#eb996e"></path><path d="M72.83,220.05s-.3.69-1.39,1a2.77,2.77,0,0,1-1.93-.17A3.06,3.06,0,0,1,68,219.11a3.17,3.17,0,0,1-.16-1.25,1.11,1.11,0,0,1,.09-.36.63.63,0,0,1,.32-.29,2.3,2.3,0,0,1,.58-.13l1.81-.25a5.62,5.62,0,0,1,1.69-.09,5.63,5.63,0,0,1-1.63.46l-1.79.35a2.46,2.46,0,0,0-.45.11c-.08,0-.09.06-.11.24a2.67,2.67,0,0,0,.14,1,2.74,2.74,0,0,0,1.27,1.54,2.59,2.59,0,0,0,1.63.23A5.21,5.21,0,0,0,72.83,220.05Z" style="fill:#263238"></path><path d="M115.3,241.61v-8.72s-3.93-6.33-3.93-7a17.33,17.33,0,0,1,1-3.17l6.33-9.4s2.88-.09,3.07,1.06c0,0,2.88.77,3.17,2.3,0,0,2.4,1.15,2.69,2.78v.77a2.42,2.42,0,0,1,1.82,1.82c.48,1.63,0,8.25,0,8.25l-2.88,6.34.29,6Z" style="fill:#ffbe9d"></path><polygon points="112.7 222.31 110.25 222.31 106.35 216.01 117.35 210.51 118.75 213.32 112.7 222.31" style="fill:#263238"></polygon><path d="M153.38,207.22v-.08c-.22-1.78-2.49-9.12-4-13.74a80,80,0,0,0-2.88-7.65c-2-4.66-5.37-12.16-6.45-13.61l-.05-.07a2.3,2.3,0,0,0-3.88.42c-1.48,3-4.78,9.38-8.15,12.61C125,188,109.3,194.73,99,199a9.53,9.53,0,0,0-5,12.74h0a9.53,9.53,0,0,0,12.39,4.83c9.83-4.17,25.18-10.39,29.35-10.39,4.67,0,11.44,2.28,14.61,3.45A2.29,2.29,0,0,0,153.38,207.22Z" style="fill:#407BFF"></path><path d="M106.33,216.57a9.53,9.53,0,0,1-12.39-4.83h0A9.53,9.53,0,0,1,99,199l2.68-1.14s4.82,3.95,6.14,9.73.89,7.95.89,7.95Z" style="fill:#455a64"></path><path d="M151.45,209.82s0-.57-.16-1.59-.44-2.48-.87-4.27a117.34,117.34,0,0,0-4.27-13.76c-2.21-5.19-3.93-10-5.75-13.22a14.44,14.44,0,0,0-2.58-3.46,5.62,5.62,0,0,0-.93-.72,1.61,1.61,0,0,1-.33-.25s.14,0,.38.16a4.66,4.66,0,0,1,1,.66,13,13,0,0,1,2.77,3.42c1.93,3.21,3.7,8,5.91,13.22a97.94,97.94,0,0,1,4.15,13.86,35.15,35.15,0,0,1,.71,4.34,7.12,7.12,0,0,1,0,1.2C151.49,209.69,151.47,209.83,151.45,209.82Z" style="fill:#263238"></path><path d="M99.07,202.59a25.86,25.86,0,0,0-2.58,3,25,25,0,0,0-1.62,3.62,7.61,7.61,0,0,1,4.2-6.63Z" style="fill:#263238"></path><path d="M104.15,213.26a6.25,6.25,0,0,1-6.63-.47,31.56,31.56,0,0,0,3.28.67A29.61,29.61,0,0,0,104.15,213.26Z" style="fill:#263238"></path><path d="M101.41,208.2A7.53,7.53,0,0,1,99,209.51a7.7,7.7,0,0,1-2.65.83A7.53,7.53,0,0,1,98.76,209,7.7,7.7,0,0,1,101.41,208.2Z" style="fill:#263238"></path><path d="M108.7,215.54c-.09,0,0-1.11-.12-2.87a22.82,22.82,0,0,0-.46-3.06A25.67,25.67,0,0,0,107,206a24.77,24.77,0,0,0-3.47-5.92c-1.11-1.38-1.91-2.14-1.85-2.21a2.68,2.68,0,0,1,.63.47,16,16,0,0,1,1.5,1.5,21.27,21.27,0,0,1,3.67,6,23.07,23.07,0,0,1,1.12,3.71,18.55,18.55,0,0,1,.35,3.14,12.76,12.76,0,0,1-.08,2.12A2.23,2.23,0,0,1,108.7,215.54Z" style="fill:#263238"></path><path d="M128.94,188.84c.05.13-5,2.38-11.2,5s-11.34,4.67-11.39,4.54,5-2.38,11.19-5S128.88,188.71,128.94,188.84Z" style="fill:#fff"></path><path d="M135.66,179.31a22.32,22.32,0,0,1-3.54,5.77,22.32,22.32,0,0,1,3.54-5.77Z" style="fill:#fff"></path><path d="M76.27,465.24a2.48,2.48,0,0,1,.27-.27l.85-.75,3.29-2.86,12.15-10.45,18.06-15.44,10.68-9.1c.92-.79,1.87-1.57,2.79-2.4s1.78-1.71,2.64-2.62a57.44,57.44,0,0,0,5-5.77,25.88,25.88,0,0,0,5.49-13.66,37.68,37.68,0,0,0-1.73-13.76c-.6-2.15-1.25-4.23-1.85-6.26s-1.13-4-1.68-5.94c-1.09-3.82-2.23-7.34-3.27-10.56-2.11-6.43-3.83-11.63-4.89-15.26-.54-1.82-.93-3.23-1.18-4.2-.12-.46-.21-.82-.28-1.1a2,2,0,0,1-.08-.37,1.91,1.91,0,0,1,.13.36l.33,1.09c.3,1,.73,2.37,1.27,4.16,1.13,3.61,2.89,8.79,5.05,15.21,1.07,3.21,2.22,6.73,3.34,10.55.56,1.92,1.08,3.91,1.7,5.93s1.27,4.1,1.87,6.26c1.21,4.3,2.24,9,1.78,13.93a26.34,26.34,0,0,1-5.58,13.93,58.69,58.69,0,0,1-5,5.82c-.86.91-1.77,1.77-2.66,2.64s-1.88,1.61-2.8,2.4l-10.7,9.08L93.07,451.19,80.81,461.51l-3.35,2.79-.88.71A2.13,2.13,0,0,1,76.27,465.24Z" style="fill:#455a64"></path><path d="M78.62,238.27a7,7,0,0,1,.88,1.53c.52,1,1.18,2.49,2.1,4.23l.24.45-.49-.16c-2.7-.89-6-2.38-9.71-3.8a40.34,40.34,0,0,0-11.53-2.72c-3-.24-4.94-.14-4.94-.24a6.06,6.06,0,0,1,1.32-.13,33.35,33.35,0,0,1,3.64,0,37.62,37.62,0,0,1,11.7,2.6c3.7,1.44,7,2.95,9.66,3.91l-.25.29c-.9-1.8-1.49-3.31-1.94-4.33A13.47,13.47,0,0,1,78.62,238.27Z" style="fill:#263238"></path><path d="M107.72,285.36a1.58,1.58,0,0,1-.48-.05l-1.37-.25c-1.19-.23-2.9-.6-5-1.08-4.21-1-10-2.51-16.27-4.58s-11.82-4.3-15.8-6c-2-.85-3.58-1.56-4.68-2.07l-1.26-.6a1.92,1.92,0,0,1-.42-.24,1.49,1.49,0,0,1,.47.14l1.29.51,4.74,1.92c4,1.61,9.58,3.77,15.83,5.84s12,3.65,16.19,4.72l5,1.24,1.35.35A2.29,2.29,0,0,1,107.72,285.36Z" style="fill:#263238"></path><path d="M109.34,262.46a3.21,3.21,0,0,1-.64-.25l-1.78-.81-6.5-3.11c-5.49-2.62-13-6.33-21.55-10-2.13-.91-4.22-1.78-6.28-2.47a20.62,20.62,0,0,0-6.12-1.06,8.66,8.66,0,0,0-5.22,1.64,10.66,10.66,0,0,0-3.1,3.71A15.79,15.79,0,0,0,56.66,257c0,.84,0,1.5.07,1.95a4.36,4.36,0,0,1,0,.68,2.69,2.69,0,0,1-.13-.67c-.06-.45-.13-1.11-.16-2a15.19,15.19,0,0,1,1.36-7.08A10.91,10.91,0,0,1,61,246a9,9,0,0,1,5.47-1.77,20.87,20.87,0,0,1,6.28,1.05c2.09.7,4.19,1.57,6.33,2.48,8.52,3.72,16,7.48,21.5,10.18l6.43,3.25,1.74.91A3.69,3.69,0,0,1,109.34,262.46Z" style="fill:#263238"></path><path d="M115.93,272.9a23.7,23.7,0,0,1-6.67-9.8c.14-.07,1.3,2.33,3.14,5S116,272.79,115.93,272.9Z" style="fill:#263238"></path><path d="M124.41,340.79c-.13,0-5.39-12.63-11.75-28.34s-11.4-28.48-11.27-28.53,5.4,12.63,11.75,28.34S124.54,340.74,124.41,340.79Z" style="fill:#263238"></path><g style="opacity:0.30000000000000004"><path d="M62.84,270.93c11.06,11.17,29.67,17.64,45,14.11a348.56,348.56,0,0,1-45-14.11"></path></g><g style="opacity:0.30000000000000004"><path d="M109.32,262.43c1.32,3.22,3.71,5.86,6.05,8.44a5.68,5.68,0,0,0,2.43,1.84,1.93,1.93,0,0,0,2.45-1.22c.17-.9-.56-1.71-1.24-2.32a58.24,58.24,0,0,0-9.69-6.74"></path></g></g></svg>