<?xml version="1.0" encoding="UTF-8"?>
<svg version="1.1" viewBox="0 0 1264 1264" width="1280" height="1280" xmlns="http://www.w3.org/2000/svg">
<path transform="translate(597,40)" d="m0 0h92l25 1 2 9 9 67 3 19 36 9 18 6 5 1 14-18 14-19 14-18 11-15 5-6 8 4 25 15 56 34 11 7 1 4-4 9-26 65-4 9v5l10 9 22 22 9 11 5-1 43-18 36-15 5-2 5 8 16 29 12 22 15 27 9 16-1 5-42 33-15 12-14 11-1 3 6 19 7 29 2 10 25 4 66 9 3 1 1 5-2 114-7 2-86 12-10 40-5 16v6l13 10 15 12 28 22 16 13 1 3-15 26-14 24-15 26-11 19-4 6-5-1-21-9-43-18-15-6-5-1-11 12-7 8-12 12-8 7-4 4 3 9 4 8 5 4 23 11 6 3 10-13 13-18 6-8 4 1 23 15 12 8 14 10 16 12 14 11 13 11 11 9 15 13 22 22 4 5v3l-25 5-45 7-12 2v17l2 58v24l-5-2-31-31-8-7-12-11-13-10-3-1-1 4-8 12-13 18-6 8-6-4-18-14-30-20-24-14-23-12-26-11-31-11-37-10-25-5-37-5-27-2h-44l-35 3-36 6-36 9-36 12-26 11-25 12-22 12-24 15-20 14-10 8-4-1-24-36-3-4-5 2-10 8-14 12-13 12-10 9-18 18h-2v-21l2-33 3-38 1-7-9-1-53-10-20-3-2-1 2-5 9-10 7-8 13-13 11-9 10-9 19-14 18-13 22-14 20-12 21-12 5 5 13 19 10 14 1 2 5-2 35-17 5-5 3-7-7-8-23-23-7-8-5-6-6 2-41 17-38 16-5 1-15-28-10-18-16-29-15-27 1-4 15-12 14-11 16-13 13-10 14-11-4-16-7-26-3-14v-5l-52-7-43-6v-67l1-52 2-2 81-11 11-1 1-8 10-38 4-13-2-4-16-13-17-13-17-14-13-10-9-7 2-5 13-23 16-27 14-25 9-15 5-8 6 1 72 30 9 4 4-2 7-8 9-10 15-15 9-7-1-6-11-27-22-55-1-3 4-4 27-15 24-14 25-14 20-12 4 1 12 16 14 18 9 12 16 21 4 6 3 1 29-9 29-7 5-39 7-53z" fill="#BD292F"/>
<path transform="translate(648,272)" d="m0 0 27 1 31 5 23 6 17 6 11 5 16 8 14 8 5 3v2l5 2 8 6 13 10 17 16 1 3h2l7 8 10 13 9 12v3h2l6 11 10 18 8 19 4 8 7 26 3 16 3 26 1 14v14l-3 31-6 27-8 24-11 25-11 20-14 20-11 13-11 12-10 10-11 9-14 11-15 10-25 13-17 7-26 8-21 4-8 1h-10l-9-7-15-13-4-1-13 18-3 3h-16l-12-2-19-5-20-7-10-4-16-8-16-9-16-11-11-9-8-6-17-17v-2l-4-2-16-20-9-13-12-21-10-21-7-20-4-14-6-27-2-24v-26l5-37 3-14 4-15 6-18 6-14 10-19 8-13 11-16 12-14 3-4h2l2-4 4-4h2v-2l8-7 14-12 11-8 10-7 6-3 19-10 14-6 12-5 15-5 23-5 11-2z" fill="#FEC954"/>
<path transform="translate(642,800)" d="m0 0h18l42 2 33 4 32 6 30 7 35 10 34 12 27 11 21 10 19 10 19 11 22 14 16 11 11 8 15 10 4 4-7 11-13 17-28 38-22 30-5 7-5-3-11-9-26-17-15-9-22-12-24-12-27-11-24-8-7-2-25-7-35-7-30-4-32-2h-37l-32 2-35 5-28 6-29 8-32 11-26 11-29 14-27 15-22 14-16 11h-3l-10-16-11-16-4-6-8-11-5-7v-3l-3-1-7-11-11-16-8-13v-4l12-8 10-7 21-14 13-8 17-10h4v-2l9-5h4v-2l9-5h5v-2l15-7h4v-2l24-10 37-13 42-12 27-6 23-4 32-4 18-1z" fill="#FCD304"/>
<path transform="translate(597,40)" d="m0 0h92l25 1 2 9 9 67 3 19 36 9 18 6 5 1 14-18 14-19 14-18 11-15 5-6 8 4 25 15 56 34 11 7 1 4-4 9-26 65-4 9v5l10 9 22 22 9 11 5-1 43-18 36-15 5-2 5 8 16 29 12 22 15 27 9 16-1 5-42 33-15 12-14 11-1 3 6 19 7 29 2 10 25 4 66 9 3 1 1 5-2 114-7 2-86 12-10 40-5 16v6l13 10 15 12 28 22 16 13 1 3-15 26-14 24-15 26-11 19-4 6-5-1-21-9-43-18-15-6-5-1-11 12-7 8-12 12-8 7-4 4 3 9 4 9-6-1-16-7-4-6-2-9 5-5 13-12 24-24 7-8 9-10 7 1 35 15 27 11 7 3 11 5 2-5 3-3 3-7h2l1-6 3-1 1-6 15-25 6-11 7-11v-5l-5-2-9-7-20-16-14-11-13-10-9-7-2-2 1-6 6-18 7-25 6-26 3-7 9-3 24-3 52-7 5-1 1-90h-9l-68-9-12-2-4-3-2-14-6-25-6-21-6-17 1-4 14-11 11-9 28-22 11-9 7-5-2-5-6-10-6-12-10-17-6-12-10-19-1-2-7 1-29 12-26 11-22 9h-5l-9-10-7-8-11-12-17-17-11-9-2-2 1-7 6-13 11-28 12-29 4-11v-2l-14-7-24-15-35-20-4 1-8 10-10 13-13 17-18 24-5 7-9-2-24-8-32-8-14-3-3-4-8-62-4-28-87-1-3 23-7 55-3 15-8 3-20 4-23 6-27 9-4-1-9-11-4-6v-2h-2l-12-16-14-19-10-13-3-4-6 1-18 10-24 14-23 13-5 3 1 7 10 24 12 29 6 16 4 10-1 5-13 12-20 18-9 10-10 11-4 6-7-1-17-7-13-6-27-11-21-8h-3l-13 21-16 28-13 23 1 5 13 11 17 13 12 10 9 7 15 12 3 2-1 10-8 25-7 28-4 19-6 2-57 8-26 4h-3v89l24 4 25 3 28 4 13 3 3 7 6 28 4 16 1 11h2l5 13 1 6-5 5-10 8-14 11-10 8-13 10-14 11-5 4 1 5 14 26 13 23 13 24 10-3 65-27 8-3h5l10 11 9 11 28 28 8 7 2 5-1 3h-2v2l-22 10-3-1 5-5 2-6-7-8-23-23-7-8-5-6-6 2-41 17-38 16-5 1-15-28-10-18-16-29-15-27 1-4 15-12 14-11 16-13 13-10 14-11-4-16-7-26-3-14v-5l-52-7-43-6v-67l1-52 2-2 81-11 11-1 1-8 10-38 4-13-2-4-16-13-17-13-17-14-13-10-9-7 2-5 13-23 16-27 14-25 9-15 5-8 6 1 72 30 9 4 4-2 7-8 9-10 15-15 9-7-1-6-11-27-22-55-1-3 4-4 27-15 24-14 25-14 20-12 4 1 12 16 14 18 9 12 16 21 4 6 3 1 29-9 29-7 5-39 7-53z" fill="#FDD505"/>
<path transform="translate(848,87)" d="m0 0 5 2 8 8 7 3 11 7 5 3v2l4 1 13 7 6 4v2h3v2h2v2h2v2l10 4v2l5 2 4 4v6l-2 7-4 15-3 16 2 1-12 30-2 4v5l10 9 22 22 9 11 5-1 43-18 36-15 5-2 5 8 16 29 12 22 15 27 9 16-1 5-42 33-15 12-14 11-1 3 6 19 7 29 2 10 25 4 66 9 3 1 1 5-2 114-7 2-86 12-10 40-5 16v6l13 10 15 12 28 22 16 13 1 3-15 26-14 24-15 26-11 19-4 6-5-1-21-9-43-18-15-6-5-1-11 12-7 8-12 12-8 7-4 4 3 9 4 9-6-1-16-7-4-6-2-9 5-5 13-12 24-24 7-8 9-10 7 1 35 15 27 11 7 3 11 5 2-5 3-3 3-7h2l1-6 3-1 1-6 15-25 6-11 7-11v-5l-5-2-9-7-20-16-14-11-13-10-9-7-2-2 1-6 6-18 7-25 6-26 3-7 9-3 24-3 52-7 5-1 1-90h-9l-68-9-12-2-4-3-2-14-6-25-6-21-6-17 1-4 14-11 11-9 28-22 11-9 7-5-2-5-6-10-6-12-10-17-6-12-10-19-1-2-7 1-29 12-26 11-22 9h-5l-9-10-7-8-11-12-17-17-11-9-2-2 1-7 6-13 11-28 12-29 4-11v-2l-14-7-24-15-35-20-4 1-7 9-1-3 4-7h2v-11z" fill="#FBC507"/>
<path transform="translate(595,497)" d="m0 0h20l4 4 1 5-2 7 1 7 3 3 5 1h9l9-3-4 8-1 6 4 3v3h2v2h11l6-4 2-5 1-9 20-2 1-8v-16l4-2h19l16 6 7 6 11 15 4 5 10 7 5 4 5 2-1 2h-2v2l-9 3-7 3-14 3-12 3-2 4-9 5-9 2 5 7 1 10-4 8-8 8-8 5h-3l2 8v10l-2 5-4 1 2 9 2 1-1 5-4 9-5 1 4 11-1 9-1 10v13l-3 1-3 11-3 5 1 8h-2l-2 4-6 7-3 3-1 5-3 1-2-8-4-2-3-3-5-3-1-5h2l-1-7-1-3-4-1-1-6 2-5-4-1-1-2v-19l-4-2-1-3v-7l3-9-5-2-2-4v-10l3-5-1-6-5-2-2-4 1-10 1-2h2l2-5-6-2-6-4-4-6-1-8 4-5 6-2-1-3-11-2-12-6-8-8-3-5v-2l-10-1v-3l9-9 10-14 1-5-5 4-9 11-13 11-1 1h-10l-7-3-8-4 3-2h3v-2l6-1 1-3 5-3 16-20 7-7 10-6z" fill="#E2803B"/>
<path transform="translate(597,40)" d="m0 0h92l25 1 2 9 9 67 3 19 36 9 18 6 5 1 14-18 14-19 14-18 11-15 5-6 8 4 25 15 56 34 11 7 1 4-4 9-15 37-1 2h-2v-7l5-22 2-5 1-10-6-5-2-1v-2l-5-1-5-3v-2h-2v-2h-2v-2h-3l-3-3-6-4-14-7v-2l-5-2-11-7-8-4-8-8-6-1v8l-1 5h-2l-2 6-4 8-8 10-13 17-18 24-5 7-9-2-24-8-32-8-14-3-3-4-8-62-4-28-87-1-3 23-7 55-3 15-8 3-20 4-23 6-27 9-4-1-9-11-4-6v-2h-2l-12-16-14-19-10-13-3-4-6 1-18 10-24 14-23 13-5 3 1 7 10 24 12 29 6 16 4 10-1 5-6 5-5 3-10 9-15 13-3 1-2 4h-2l-2 4-11 10h-5l-5-4h-8l-2-1v-2h-5v-2l-6-1-10-4-4-2-9-5v-2l-4-1-4-5 2-4 7 1 36 15 9 4 4-2 7-8 9-10 15-15 9-7-1-6-11-27-22-55-1-3 4-4 27-15 24-14 25-14 20-12 4 1 12 16 14 18 9 12 16 21 4 6 3 1 29-9 29-7 5-39 7-53z" fill="#FDD505"/>
<path transform="translate(635,262)" d="m0 0h37l29 4 26 6 26 9 15 7 22 12 12 8 19 14 15 14 15 15 9 11 9 13 10 15 6 10 10 21 8 20 6 19 5 25 2 14 1 14v36l-2 21-4 22-7 24-11 28-10 19-8 13-12 17-7 9-12 14-17 17-11 9-16 12-15 9-12 7-24 11-30 10-19 3-25-1-2-1h-39l-5 1h-25l-20-4-19-6-15-6-17-8-17-10-12-8-12-9-9-7v-2l-4-2-8-7-7-8-5-5v-2h-2l-11-14-11-16-11-18-8-16-7-16-8-24-4-16-4-23-2-18v-37l4-31 6-26 8-22 5-11 6-13 9-17 8-12 12-17 15-16 9-10 8-7 11-10 15-11 16-10 14-8 19-9 22-8 28-7zm13 10-26 2-26 5-20 6-14 5-10 5-23 11-4 3-7 4-10 7-14 11-12 11-3 2v2l-4 2-4 4v2h-2l-18 22-8 12-8 13-8 15-10 23-7 23-3 12-4 27-2 17v26l2 24 7 32 8 24 9 20 10 19 9 14 9 12 11 13 3 4h2l2 4 12 12 11 9 12 10 20 13 16 9 11 5 23 9 21 6 8 2 9 1h16l7-8 9-13 4 1 11 10 13 10h10l20-3 19-5 21-7 20-9 17-9 19-13 17-14 12-11 10-10 9-11 8-10 12-18 12-22 10-24 7-21 6-27 3-31v-14l-2-25-4-27-7-27-4-10-4-8-6-13-10-19-5-9h-2l-1-4-9-12-10-13-6-7h-2l-2-4-8-8-8-7-14-11-10-7h-2v-2l-24-14-18-8-18-7-22-6-22-4-13-2z" fill="#DE8F24"/>
<path transform="translate(989,849)" d="m0 0 10 4 31 21 16 12 16 13 13 10v2l4 2 13 12 8 8 6 5 4 5 2 1v3l-52 9-19 4-2 1v28l1 35v27l-7-6-8-8-5-6-8-7-13-13-13-10-5-3 2-5 11-16 12-17 7-10 15-20-1-6-6-10-1-6h-2l-7-13-9-17-2-5-4-7-7-13z" fill="#FDD404"/>
<path transform="translate(307,843)" d="m0 0h4l-2 6-10 18-14 26-10 17-5 11 1 5 4 5 7 11 22 33 7 10 1 6-11 8-11 9-13 11-11 11-7 8-4 2 1-32 2-32 1-5v-17l-23-5-40-7-12-2v-3l18-18 11-9 5-5h2v-2l26-20 17-12 32-22z" fill="#FDD304"/>
<path transform="translate(806,588)" d="m0 0 5 5 7 14 4 16v21l-5 15-6 10-9 10-9 6-5 2-6 1h-11l-13-4-13-7-12-11-4 1-8 9-7 8-9 11-12 14-8 10-12 14-9 11v4l12 11 17 16 8 5v4l-15 2h-10l-9-7-15-13-4-1-13 18-3 3h-9l-4-1 2-5 11-14 8-10-13-13-8-7-9-9-8-7-22-22-7-8-13-13-11-9-2-2-14-1-11-6-9-9-5-11-1-10 2-8 4-6 5-4 6-2h8l12 5 8 7 5 8 3 9v13l-3 6v2l11 9 12 11 4 3 10 2 11 9 15 14 8 7 8 6 5 9 5 3 5 4 3 7h2l1-7 6-5 5-7h2l2-6 11-11 7-8 10-11 7-8 9-10 9-11 3-3 4 1 6 7 14 9 13 4h13l10-3 11-8 8-11 5-11 2-8v-17l-5-21-3-7z" fill="#FDFCFD"/>
<path transform="translate(595,497)" d="m0 0h20l4 4 1 5-2 7 1 7 3 3 5 1h9l9-3-4 8-1 6 4 3v3h2v2h11l6-4 2-5 1-9 20-2 1-8v-16l4-2h19l16 6 7 6 11 15 4 5 10 7 5 4 5 2-3 3-6 1-12-8-11-9-7-5-2 1 3 5 11 9 10 8v3l-6 1-14-12-15-6-7-4h-27l-8 5h-3l1 6 4 2 3 2 6 1 2-8 5 1v5h2v2l6-4h6l5 3-1 7-5 4-4 1-4-6-7-3-1 3-2 1h-8l-7-3-3-3-1-5-4 4-3 5v11h22l4 2-11 1 4 2h-48l-20-1-9-4-6-4-3-5 2-5 6-5h7l3 3-1 6-5 4v4l17 2 25 1-1-12-6-6-5 2-6 6-3 1h-10l-1-1-1-9 1-3 3-2h5l-2 4 1 4 5 1 1-3 6-2-1-7-3-4-17-4h-12l-10 7-8 9-4 8-1 3-2 1h-7v-3l9-9 10-14 1-5-5 4-9 11-13 11-1 1h-10l-7-3-8-4 3-2h3v-2l6-1 1-3 5-3 16-20 7-7 10-6z" fill="#BD292F"/>
<path transform="translate(464,76)" d="m0 0 4 1 12 16 10 13-2 6 3 5-6-1v-2l-8-2 1-3-6-5-5-9-9-1-8 6h-2v2l-6 2v2l-8 4h-3v2l-5 2h-3v2l-6 2v2h-4v2l-4 2h-3v2l-10 6-3 3-2 4-4 2 1 7 10 24 12 29 6 16 4 10-1 5-6 5-5 3-10 9-15 13-3 1-2 4h-2l-2 4-11 10h-5l-5-4h-8l-2-1v-2h-5v-2l-6-1-10-4-4-2-9-5v-2l-4-1-4-5 2-4 7 1 36 15 9 4 4-2 7-8 9-10 15-15 9-7-1-6-11-27-22-55-1-3 4-4 27-15 24-14 25-14z" fill="#FDD505"/>
<path transform="translate(897,625)" d="m0 0h1v7l-6 13-8 16-8 14-11 15-8 11-13 15-17 17-11 9-16 12-15 9-12 7-24 11-30 10-19 3-25-1-2-1h-39l-5 1h-25l-20-4-19-6-15-6-17-8-17-10-12-8-12-9-9-7v-2l-4-2-8-7-7-8-5-5v-2h-2l-5-6 1-4 3-1 4 4 3 1 6 7 2 1v2h2v2l4 2 5 5 9 7v2l4 1 15 12 11 7 21 12 15 7 10 4 18 4 22 6 9 1h16l8-10 8-11 4 1 11 10 13 10h10l20-3 19-5 21-7 20-9 17-9 19-13 17-14 12-11 9-9 9-11 8-10 12-18 1-2 4-1 4-7 8-16 4-4 3-7h2z" fill="#DF8F25"/>
<path transform="translate(689,362)" d="m0 0h9l15 6v1l-7-1-8-3h-12l1 7 7 9 13 11 13 9 4 1 3-10 8-9v-4l3-1h16l12 1 2 5 6 7 3 9v3l6-1-2 5h-4l-1 7-4 8-5 6 1 2 21 9 11 4-4 1-8-3-9-2-13-6v16l-3 16-2 9-4 8-5 2-5-1-4-5-5-16-1-7-1-17-1-5-19 9-14 5-10 2h-6l-3-9 4-7 11-11 11-9 10-7-2-4-11-7-5-5-7-4-6-8-2-4-3-1-1-5 2-5z" fill="#BE2B2F"/>
<path transform="translate(749,326)" d="m0 0h7l3 5 6 20 1 7v19l7-3 14-7 9-3h7v-2l5-1h7l4 3 1 7-7 9-11 11-13 10-4 2-1 3 14 10 13 12 7 8 2 6-1 4-5 3-10-1-18-6-2-2 6 1 4 1-19-8-8-4-1-2 8-11 3-10h4l1-4h-5l-4-12-7-8v-4h-29l-2 5-7 8-3 10-3 1-11-7-13-11-8-7-5-8 1-5 4-1h8l10 4h2l-9-4 3-1 16 6 13 7h3l1-18 3-19 3-8z" fill="#D8513B"/>
<path transform="translate(575,178)" d="m0 0h7l8 4 4 6-1 7h-6l-5-7-2-1h-7l-5 3-1 7 3 5 14 7 10 4 6 5 3 6v10l-5 8-12 6-14 1-3 1v2l-4 1v2l-9-2-1 3-7 1-5-7-7-14-1-1h-8l-7 3 1 6 5 10 3 8v6l-7 1-7-15-16-36-2-6 1-5 16-7 8-2h6l7 6 5 10 4-2v-2l3-2 1-1h6v-2l2-1v-14l3-1 2-4 7-5z" fill="#D1313A"/>
<path transform="translate(848,87)" d="m0 0 5 2 8 8 7 3 11 7 5 3v2l4 1 13 7 6 4v2h3v2h2v2h2v2l10 4v2l5 2 4 4v6l-2 7-4 15-3 16 2 1-12 30-2 4v5l10 9 22 22 9 11h5l3 5 1 4 12-1v-2l10-4h4v-2l13-4 4-2h9l-2 2-31 13-24 10-5 2h-5l-9-10-7-8-11-12-17-17-11-9-2-2 1-7 6-13 11-28 12-29 4-11v-2l-14-7-24-15-35-20-4 1-7 9-1-3 4-7h2v-11z" fill="#FBC407"/>
<path transform="translate(227,725)" d="m0 0 4 1 10 19 13 23 14 26 5 9 10-3 65-27 8-3h5l10 11 9 11 28 28 8 7 2 5-1 3h-2v2l-22 10-3-1 5-5 2-6-7-8-23-23-7-8-5-6-6 2-41 17-9 4-9 1-7 2-9 2-7-2-4-6v-10l-5-9-3-7-1-4h-2l-4-9-6-13-4-12-2-3 1-2h-2l-2-4-7-5z" fill="#FAC209"/>
<path transform="translate(518,348)" d="m0 0 50 1 23 1 6 1v1l-44-1h-36l-1 1v12l-1 2-2 48v5l2-1 29-1h30l3 2v5l-10 1-1 2h6l1 5 2 1-1 5-3 1h-1v13 3l4 1v-4h-2l-1-3 2-9 3-1v12h2l3-12h2l1 6 2-7 3 1 1 9 1-9 4 1 1 1v6l-3 3h3l3 1-1-5-1-9 1-1h5v14l-1 2h-2v2h-9l-5 1h24l1 6-1 1-9 1h-75l-29-1-1-3 5-5 18 1 11-1 1-2 5 1v2l6-1 7-1 2-1 1 2 9 1 3-3 2-4v-8l-3 10-3 2h-5v-16h-11l3 3 5 1v8l-4 4h-6l-1-1-1-13-1 1-1 10-5 1-1-2-1-6-1 5-4 4h-19l-2-1 1-8 2-8h10v-1h14l2-1-2-4-4-1-13-1-4-2-1-21 1-26 2-21 2-6z" fill="#F3BCA0"/>
<path transform="translate(845,76)" d="m0 0 8 4 25 15 56 34 11 7 1 4-4 9-15 37-1 2h-2v-7l5-22 2-5 1-10-6-5-2-1v-2l-5-1-5-3v-2h-2v-2h-2v-2h-3l-3-3-6-4-14-7v-2l-5-2-11-7-8-4-8-8-6-1v8l-1 5h-2l-2 6-4 8-8 10-13 17-3 4-5 3-4 4-1 3h-3l-2 4h-2l-4 8-5 1-2-2 2-12v-3l14-18 14-19 14-18 11-15z" fill="#FDD505"/>
<path transform="translate(494,858)" d="m0 0 4 1 10 19 14 24 4 8v2l-7 2-5-1-4-6-12 1 2 7v4l-16 6-6 1-4-4-6-7v-2l-6-3 5 13 1 6-4 4-5-1-5-10-10-30v-4h-2l-2-10 9-5 6-1h12l4 4 4 9 1 7-3 6v5l8 9 4 6 3 2 1-5-4-48 1-6z" fill="#BD292F"/>
<path transform="translate(938,330)" d="m0 0 5 1 3 3 7 12 2 5v13l-6 8-10 7-16 9-8 3h-7l-6-3-6-7-10-16 1-5 18-10 27-16z" fill="#FCF2EE"/>
<path transform="translate(359,575)" d="m0 0h13l6 4 4 5 3 9v7l-3 7-5 5-10 5-21 5-13 1-8-3-6-9-2-6v-8l3-8 7-6 15-5z" fill="#FCF4F1"/>
<path transform="translate(951,515)" d="m0 0h25l12 2 7 5 3 5 1 4v10l-4 9-6 5-5 2-6 1h-21l-13-2-6-3-5-6-2-5v-13l6-9 6-4z" fill="#FCF3EF"/>
<path transform="translate(527,362)" d="m0 0 47 1 8 1 1 1v40l-1 1h-51l-5-2v-41z" fill="#FDFBFC"/>
<path transform="translate(644,170)" d="m0 0h14l12 1 6 3 4 6 1 3v9l-5 8-1 4 7 8v13l-3 7-5 4-3 1h-28l-1-1v-39l1-26z" fill="#FCF4F1"/>
<path transform="translate(404,446)" d="m0 0 1 3-7 28-1 5-1 16h-2v20l4 6 2 16 2 4 2 24 7 32 8 24 9 20 10 19 9 14 9 12 11 13 7 8 11 11 3 2v2l4 2 16 13 20 13 16 9 11 5 23 9-3 1-9-3-13-5-16-8-12-7-7-4-13-9-11-9-3-1v-2l-4-2-7-6v-2l-4-2-3-2v-2h-2v-2l-4-2v-2l-4-2v-2l-4-1-1-3-5 1h-3l-6-8-9-13-11-18-8-16-7-16-8-24-4-16-4-23-2-18v-37l4-31 6-26z" fill="#E3843D"/>
<path transform="translate(519,303)" d="m0 0 2 1-3 3h-2v2l-11 7-7 7-4 6-7 7-8 7-6 6-2 5h-2l-2 4-9 10-12 17-10 16-8 15-10 23-7 23-3 12-4 27-2 17-1 23-2-1-2-16-4-6v-12l1-8h2v-16l7-29 3-13 6-15 7-16 12-21 15-22 12-14 8-8 7-8 8-7 11-10 8-6 8-2 1-3 9-4z" fill="#DE9023"/>
<path transform="translate(611,57)" d="m0 0 1 3-5 34-5 41-3 15-8 3-20 4-23 6-27 9-4-1-9-11-4-6v-2h-2l-12-16-14-19-10-13-3-4-6 1-18 10-24 14-21 12h-2l2-4 6-5 6-2v-2l4-2h3v-2h4v-2l3-2h3v-2l4-2h4v-2l9-4h2v-2l3-2h3v-2l10-7 9 1 5 8v2l5 2 2 3v3h4v2h2v2h5l-3-5 1-3 3-1 12 16 16 21 4 6 7 2 2 2-2 8 9-1 10-2 5-2 10-1 10-4h9l10-1 2-4 1-6-1-7 2-3 1-17 1-3 3-2 1-25h2l1-2 1-16h2l1-8z" fill="#FAC208"/>
<path transform="translate(602,525)" d="m0 0h12l17 4 4 5v7l-6 3-1 2h-5l-2-2 1-4 1-2-7 1 1 12h10l5-3 7-6 4 2 5 5v12h-25l-17-2-1-5 4-4h2v-6l-2-2h-7l-6 5-1 4 3 5 8 5 6 2 25 3 4 2h11l5 1v2l3 1v2l6 1v2h-48l-10-3-8-3-9-6-9-10-1-2v-8l7-9 8-7z" fill="#e92"/>
<path transform="translate(980,414)" d="m0 0 5 1v5l-4 4-13 6-7 3-23 10-2 1 1 1 51 2 3 3 1 6-3 3-17 8-25 11-4 2 2 1 49 2 4 2 1 6-1 1h-16l-44-3-7-2-2-3v-5l5-4 37-17 5-2-1-1-48-2-3-3-2-4 1-5 15-8 13-6 8-3h3v-2z" fill="#FCF2EE"/>
<path transform="translate(691,497)" d="m0 0h19l16 6 7 6 11 15 4 5 10 7 5 4 5 2-3 3-6 1-12-8-11-9-7-5-2 1 3 5 11 9 10 8v3l-6 1-14-12-15-6-7-4h-27l-8 5-4 1-2 4h-1v-8l-1-6 20-2 1-8v-16z" fill="#BD292F"/>
<path transform="translate(719,92)" d="m0 0h2l1 2 5 38 1 4 36 9 18 6 6 4-2 12 4 1h2l2-5 6-7h3l1-4 5-5h3l-8 11-11 15-9-2-24-8-32-8-14-3-3-4-6-46v-7l1 3h5l2 9 9 9-3-14z" fill="#FAC208"/>
<path transform="translate(522,352)" d="m0 0h12l4 2-3 1 1 2-10 2-3 2 12-1h26l7-2 4-2 17-1 4 1 1 3v46l-1 9-56 1h-18l-3-1-1-6 1-35 2-18 1-2zm5 10-1 1v41l5 2h51l1-1v-40l-1-1-8-1z" fill="#F3BEA3"/>
<path transform="translate(878,696)" d="m0 0 4 2 11 18h7l16-4h2l-1 5-8 9-5 7 6 11 6 10 1 5-5-1-17-6-7-2-2 4-7 8-5 7-2-1 1-26-5-1-17-6v-4l13-5 11-4 2-15v-10z" fill="#FCF6F4"/>
<path transform="translate(428,693)" d="m0 0h2l3 21 2 6 24 8v2l-22 10h-2l2 18v7l-4-2-11-13-1-2-8 1-18 7h-4l2-5 11-19-1-5-9-11-4-4v-3l12 2 8 2h5l10-15z" fill="#FDF8F6"/>
<path transform="translate(912,916)" d="m0 0 7 1 19 10 4 3 9 5-1 5-4 16 5-2 5-6 6-4 7 1 4 2-2 4-11 8h-2v2l-10 7-4 5-10 18-3 2-8-5 1-5 11-20 2-7 2-16v-5l-2 1h-8l-4-2-1 5-14 29-5 9-6-2-4-3 1-5 10-19 8-17 1-5-6-1 1-7z" fill="#BD292F"/>
<path transform="translate(899,278)" d="m0 0h5l12 14 4 8v9l-6 8-7 4h-9l-2 9-8 8-6 5-4 5-4-1-2-3 1-5 7-8 5-4 4-5-1-5-6-7-5 1-11 10-6 5-5-1-2-5 5-5 17-16 8-7 14-12z" fill="#FCF3F0"/>
<path transform="translate(1041,234)" d="m0 0 4 4 8 15 4 16 3 4 3 6v7l-5-1-2-4-7-2v-3-2l-6-2-7-14-7 1-13 5-11 1-12 5h-5v2l-11 4h-3v2l-12 2-2-3-2-8 43-18 36-15z" fill="#FDD604"/>
<path transform="translate(928,571)" d="m0 0 12 2 45 10 7 3-1 9-4 15-4 6-4 3-8 1-11-4-5-7h-3l-3 3-16-2-12-2-1-1 1-7 1-1 13 1 16 2 4-16-26-5-3-1z" fill="#FCF3F0"/>
<path transform="translate(522,198)" d="m0 0h6l7 6 3 7v10l-2 5 6 2 4 5 8 16 2 6-3 2h-5l-5-7-7-14-1-1h-8l-7 3 1 6 5 10 3 8v6l-7 1-7-15-16-36-2-6 1-5 16-7z" fill="#FCF3F0"/>
<path transform="translate(340,931)" d="m0 0h7l6 5 4 8v10h6l5 5 3 7v9l-3 5-11 9-6 3-4-1-9-15-14-24-4-7v-4l14-8z" fill="#BD292E"/>
<path transform="translate(860,242)" d="m0 0 4 1 5 4-1 7-14 39-6 15-3 5-4-2-3-3 1-5 3-7v-5l-6-5-9-6-5 1-8 6-6-2-2-2 1-4 11-7 12-9 15-10 12-9z" fill="#FCF3EF"/>
<path transform="translate(454,698)" d="m0 0 4 1 2 3 3 1 6 7 2 1v2h2v2l4 2 5 5 9 7v2l4 1 15 12 11 7 21 12 15 7 10 4 18 4 22 6 31 4v1l-11 1-16 1h-7l-2-2-6 2-8-1-21-6-22-9-19-10-10-6-12-8-12-9-9-7v-2l-4-2-8-7-7-8-5-5v-2h-2l-5-6 1-4z" fill="#DE8F25"/>
<path transform="translate(458,233)" d="m0 0 4 1 6 4 14 11 16 13 13 10 2 2-1 4-2 1h-7l-7-6h-6l-10 7-4 3 1 7 2 4-1 7-3 3-4-2-9-27-7-23-3-9v-6z" fill="#FCF2EF"/>
<path transform="translate(676,841)" d="m0 0h10l2 1 9 36 1-5 2-26 2-3h8l1 1-1 15-3 31-2 12-1 1-9-1-3-5-7-30-1-1-4 30-2 4h-6l-2-1v-15l2-15 3-27z" fill="#BD292E"/>
<path transform="translate(826,876)" d="m0 0 7 2 12 5 5 6 1 7-1 7h-2l-2 7-9 4-1 28-4 1-5-3-1-2-1-18-3 1-5 13-4 1-7-3 1-6 4-11 10-28 2-8h2z" fill="#BD292E"/>
<path transform="translate(581,841)" d="m0 0h8l1 1 6 48 1 9-3 2h-8l-2-7-2-18-13 1 4 22v4l-2 1h-10l-1-1-7-56 2-2 9-1 2 7 2 15 12-2-2-16v-6z" fill="#BD292E"/>
<path transform="translate(384,903)" d="m0 0h5l16 30 9 19v3l-5 3h-5l-8-14-2-5-7 1-3 2 1 6 8 16v3l-6 3h-5l-8-15v-2h-2l-4-10-8-15-3-6 1-5 8-3 2 5h2l6 12 9-3 1-5-6-10-2-5z" fill="#BD292F"/>
<path transform="translate(627,839)" d="m0 0h7l1 1 1 46 1 2h9l1-4 1-44 11-1 1 1v40l-1 11-5 6-10 3h-7l-8-3-3-3v-2h-2l-1-7v-45z" fill="#BD292F"/>
<path transform="translate(506,432)" d="m0 0 12 1 5 1v1l-15-1-3 16h21l3-3 1-5 1-4h1l1 12 5-1v-10l2-2 1 1 1 13h6l3-3 1-8h-5l-1-3-3-1v-1h12l1 2-1 15 8-2 2-10 2-1v9l-4 7-5 1-7-2h-2l-13 1v-2h-5l3 2-16 1-17-1-4 4v3h104l9-1v-6l-3 1h-23l2-2 8-1 6 1v-2h2l1-16-5 1 1 14-7 1 2-5h2l-2-7-3-1 1 6-2 4h-1l-1-10-2-1v6l-2 2-1-1v-6h-2l-2 10-1 2h-2l-1-11h-2l-1 12h2v4l-6-1 1-3v-16l2 1v2l6-6h28l2 2 1 16 4 4 1 8-3 1v2l-10 1h-35l-63-1-6-2-3-5 6-8 4-11 2-7z" fill="#CF3038"/>
<path transform="translate(630,970)" d="m0 0h15l13 1 10 4 6 7 4 11v12l-3 9-6 8-7 4-3 1-12 1h-16l-1-1zm9 9v40h15l7-3 4-4 2-4 1-12-2-8-4-6-8-3z" fill="#C02F31"/>
<path transform="translate(641,525)" d="m0 0 1 2-2 5v3l4 3v3h2v2h11l6-4 2-5 1-6 2 3v7l2-4 2 3v3l4 2 3 2 6 1 2-8 5 1v5h2v2l6-4h6l5 3-1 7-5 4-4 1-4-6-7-3-1 3-2 1h-8l-7-3-3-3-1-5-4 4-3 5v11h22l4 2-11 1 4 2h-48l-20-1-9-4-6-4-3-5 2-5 6-5h7l3 3-1 6-5 4v4l17 2 25 1-1-12-6-6-5 2-6 6-3 1h-10l-1-1-1-9 1-3 3-2h5l-2 4 1 4 5 1 1-3 6-2-1-7-1-2 3 1 3-6z" fill="#E3813D"/>
<path transform="translate(790,198)" d="m0 0 5 1 2 5-10 21 1 3 13 7h4l8-14 3-8 6 1 2 2-1 7-19 38-8 14-5-1-2-2 1-5 10-21 1-3-6-1-10-5h-4l-10 19-2 5-7-2-1-4 11-23 10-20 7-13z" fill="#FCF4F1"/>
<path transform="translate(319,435)" d="m0 0 10 1 53 10 1 1-1 9-7-1-23-4-1 10-2 12 14 2 14 3v8l-1 1-10-1-51-10-3-1v-7l1-2 9 1 15 3h3l4-21-12-2-14-3-1-5z" fill="#FCF5F2"/>
<path transform="translate(199,578)" d="m0 0h15l51 7 14 2 1 5-4 4-2 1h-7l1 4h-9l-86-12v-8l10 2 7-1z" fill="#FDD604"/>
<path transform="translate(567,970)" d="m0 0 4 1 6 7 8 7 22 22v2h2l-1-2v-36l1-1h7l1 1 1 56-4 1-38-38v37l-1 1h-7l-1-1z" fill="#C02E30"/>
<path transform="translate(640,471)" d="m0 0 3 1-5 5v8l1 4 24-1 3-9v-7h4v12l-4 6-1 5 2 4v6l-6 9v5l4 2 3 2h14v1l-16 1v9l-3 6-6 4h-9l-2-1v-2h-2l-2-4-3-2 1-6 3-6h-2l-2-1 6-4-1-5-5-10v-10l-4-9v-6l4-6z" fill="#E17E3D"/>
<path transform="translate(415,888)" d="m0 0 6 1 9 13 7 10 8 10 1 4h2l5 8v3l-9 3-4-4v-2l-9 1-4 1 2 12-5 3-5-1-4-16-3-21-2-6-1-10-1-6z" fill="#BD292F"/>
<path transform="translate(383,308)" d="m0 0 10 1 4 4-1 5-1 1h-6l-2-1h-6l-4 5-1 5 2 5 4 2 9-1 17-5 9-1 9 4 5 8v10l-4 8-6 7-7 3-8-1-6-3v-5l4-4 8 2 6-1 4-5v-8l-2-3-9-1-9 3-16 5-8-1-7-5-4-8v-8l5-9 8-7z" fill="#FCF2EF"/>
<path transform="translate(517,350)" d="m0 0h36l34 1 11 1v60l-2 5-16 1v5l-2 3h-4v2l-8-1 1-3h10l-1-5-6-1h-26l-31 1-1-10 2-43 1-3v-11zm5 2-3 1-2 8-1 12-1 35 1 6 3 1h18l56-1 1-9v-46l-1-3-10-1-11 1-5 3-6 1h-26l-12 1 6-3 7-1v-2l2-2-10-1z" fill="#C73733"/>
<path transform="translate(598,436)" d="m0 0h5v14l-1 2h-2v2h-9l-5 1h24l1 6-1 1-9 1h-75l-29-1-1-3 5-5 18 1 11-1 1-2 5 1v2l6-1 7-1 2-1 1 2 9 1 3-3 3-5 1-8h2v13 3l4 1v-4h-2l-1-3 2-9 3-1v12h2l3-12h2l1 6 2-7 3 1 1 9 1-9 4 1 1 1v6l-3 3h3l3 1-1-5-1-9z" fill="#F3BDA0"/>
<path transform="translate(575,178)" d="m0 0h7l8 4 4 6-1 7h-6l-5-7-2-1h-7l-5 3-1 7 3 5 14 7 10 4 6 5 3 6v10l-5 8-10 5h-14l-6-4-3-5-1-6 3-3h5l3 4 3 5 2 1h6l6-4 2-6-2-6-20-8-10-5-4-6-1-3v-9l3-6 8-6z" fill="#FCF3F0"/>
<path transform="translate(914,622)" d="m0 0 5 1 30 13 18 8 8 5-1 5-5 2-19-8 6 12 7 12 1 7-2 2-4-1-9-15-7-12-16 2-17 2h-8l-1-2 3-6 4-2 14-1 18-3-4-3-21-9-1-1v-6z" fill="#FCF3EF"/>
<path transform="translate(745,851)" d="m0 0 10 2 1 3-1 37 10-19 8-14 1-1h7l4 2-3 8-2 2-1 4h-2l-2 6-12 22-7 12h-6l-4-2-1-2-1-37v-22z" fill="#BD292F"/>
<path transform="translate(339,378)" d="m0 0h6l-1 7-5 14 1 4 12 5h4l8-18 4-2 3 2-1 7-5 13 1 3 8 4 9 3 3-4 6-15 4-2 3 2-1 7-8 21-2 3-6-1-54-22-1-5 11-25z" fill="#FCF4F1"/>
<path transform="translate(410,237)" d="m0 0 2 1-7 7-8 7-12 11-7 8-11 12-4 6-7-1-17-7-13-6-27-11-21-8h-3l-2 2v-7l-1-2v-6l5-3 7-2 21 9-3 5 4 5 3 1v2l10 4 3 2 16 6v2h5v2h10l5 4h5l12-11 5-6 11-9 12-11z" fill="#FAC00A"/>
<path transform="translate(948,524)" d="m0 0h28l12 3 3 4v10l-4 5-8 2h-24l-9-1-6-4-2-9 2-5 5-4z" fill="#D1313A"/>
<path transform="translate(937,342)" d="m0 0h5l5 9 1 5-2 6-9 8-16 9-7 3h-6l-6-5-5-8 1-4 8-5 15-9z" fill="#D2333A"/>
<path transform="translate(793,864)" d="m0 0 5 1 15 5 3 3-2 8-13-1-3 4v6l8 2 1 7-2 4h-5l-6-2-4 9 1 4 10 2 1 4-4 7-9-1-12-4-2-1 1-8 8-23 6-20z" fill="#BD292F"/>
<path transform="translate(355,585)" d="m0 0h17l4 4 1 9-4 6-8 4-22 5h-11l-4-2-3-6v-8l5-5 15-5z" fill="#D1313A"/>
<path transform="translate(331,410)" d="m0 0 9 3 32 13 5 2-1 4 3 1v2l5 5-1 4-5-1v2l4 1-12-1-41-8 4-2-1-4-1-2h-3l-1-12 2-2z" fill="#D12F3A"/>
<path transform="translate(935,550)" d="m0 0 6 4 7 2 9 1h25l-3 3-4 2 9 3 2 4-1 5 2 4 3 1 1 5 1 2-16-4-45-10-3-2h5v-2l-2-1-3-9h5z" fill="#D13039"/>
<path transform="translate(728,970)" d="m0 0 4 1 17 37 8 18-1 3-7-1-4-5-4-9h-22l-7 14h-8l1-6 18-40zm1 19-4 8-3 8h15l-3-10-3-6z" fill="#C02E30"/>
<path transform="translate(599,527)" d="m0 0h4l-2 4-3 5-2 3h-3l-1 5h4l-1 7 3 5 8 5 6 2 25 3 4 2h11l5 1v2l3 1v2l6 1v2h-48l-10-3-8-3-9-6-9-10-1-2v-8l7-9 8-7z" fill="#FEB82A"/>
<path transform="translate(469,352)" d="m0 0h2v2h-2l-2 4-9 10-12 17-10 16-8 15-10 23-7 23-3 12-4 27-2 17-1 23-2-1-2-16-4-6v-12l1-8h2v-16l7-29 3-13 4-9h1v6l1 1 1-4 2-1 1 1 3-1 3-10 10-21 5-8 11-16 9-12 10-11z" fill="#E09025"/>
<path transform="translate(198,1120)" d="m0 0h15l11 2 5 4 3 10v27l-3 8-6 5-3 1-18 1-4-2-1-10v-19zm8 7-1 1v41l2 2h10l5-3 2-4 1-6v-19l-2-8-3-3-3-1z" fill="#FEFDFE"/>
<path transform="translate(919,319)" d="m0 0h2l1 3-1 7-2 3h4l2 4 2 2-24 14-10 6-3-1-6 1v-2h-5l-2-5-4-2v-3l5 1 8-9 8-7 2-3 1-7 3-1h9l-2 3 6 1 5-2z" fill="#D13139"/>
<path transform="translate(760,1119)" d="m0 0h7l8 4 4 5 1 2v6h-7l-5-8-2-1h-7l-4 4-2 11 1 21 3 6 3 2h8l3-2 1-3v-8l-1-3-6-3-1-4 2-1h13l1 3 1 19-3 7-10 3h-8l-8-3-4-5-3-8v-27l3-9 5-5z" fill="#FEFDFE"/>
<path transform="translate(919,603)" d="m0 0 2 4 24 4h6l1-3 4 1 4 6 4 3-5 2v3h-2l4 7 3 1 1 7v3l6 2v3l-4-1-36-16-13-6-4-2h3l-1-6h2v-9z" fill="#D1313A"/>
<path transform="translate(867,894)" d="m0 0 9 1 8 5v4l-2 5-4 1-4-3h-7v7l5 15v7l-3 7-4 6-4 2h-11l-8-5v-8l3-4h3l2 4 6 1h3l-2-13-2-6-1-10 3-10 7-5z" fill="#BD292F"/>
<path transform="translate(723,406)" d="m0 0 3 1 2 10 8 11-3 3-17 8-18 6-10 1-3-2 1-7 11-12 16-13z" fill="#FDF8F7"/>
<path transform="translate(808,364)" d="m0 0h6l3 2v5l-9 10-13 12-13 9-5 1-4-12-7-8 2-4 15-7h4v-2l14-5z" fill="#FDF7F6"/>
<path transform="translate(690,364)" d="m0 0h8l25 10 12 7-1 4-6 7-3 10-3 1-11-7-13-11-8-7-5-8 1-5z" fill="#FDF8F6"/>
<path transform="translate(739,430)" d="m0 0 12 1 12-1v20l-4 20-3 8-3 3-5-1-4-5-4-16-2-28z" fill="#FDF7F6"/>
<path transform="translate(867,1119)" d="m0 0 5 1 3 5 6 21 7 24 1 8h-6l-4-9-1-5h-18l-5 12-4 2-4-1 2-9 7-25 7-19 2-4zm1 13-7 21v4h15l-5-22z" fill="#FEFDFE"/>
<path transform="translate(778,408)" d="m0 0 6 1 13 10 10 9 5 5 5 7-1 5-7 1-15-4-19-8-8-4-1-2 8-11z" fill="#FDF8F7"/>
<path transform="translate(581,355)" d="m0 0h8l4 1 1 3v46l-1 9-2-1v-5h-3l-6 2-2-1h-46l-11-1-2-3h61v-40l-8-1-36-1-11-1v-1l8-1h26l7-2 4-2z" fill="#F2BB9D"/>
<path transform="translate(682,528)" d="m0 0h27l7 4 8 7 4 4-2 11-6 3-6 5-7 3h-6l-4-1 2-4 5-2 4-1 2-5 3-5v-4h-6l-1-1h-6l-4 3h-2v-2h-2l-1-5-4-1-2 8h-6l-7-5-1-6z" fill="#EF991E"/>
<path transform="translate(748,329)" d="m0 0h6l4 11 4 15 1 23-1 1h-22l-1-1v-18l3-16 2-8 3-6z" fill="#FDFAFA"/>
<path transform="translate(703,1120)" d="m0 0h6l1 1 1 41 2 7 4 2h7l5-5 1-45 1-1h6l1 1v42l-3 9-6 5-10 2-9-3-5-5-2-6z" fill="#FEFDFE"/>
<path transform="translate(518,348)" d="m0 0 50 1 23 1 6 1v1l-44-1h-36l-1 1v12l-1 2-2 48v5l2-1 29-1h30l3 2v5l-10 1-1 2h6l1 4-1 1h-8v-5h-21v5l-8 1-3-5-4-1-13-1-4-2-1-21 1-26 2-21 2-6z" fill="#E4843E"/>
<path transform="translate(1030,1122)" d="m0 0h11l6 5 3 9v25l-2 10-5 6-9 2-7-3-5-6 1-5 5 1 3 3v2h9l2-8v-6l-4 1h-9l-6-6-2-7v-11l3-8zm2 6-3 4-1 11 2 6 2 2h7l3-4v-14l-4-5z" fill="#FEFDFE"/>
<path transform="translate(704,173)" d="m0 0h6l3 3 4 21 1 8 3-1 8-12 7-10 7-1 2 3-8 11-10 13-7 11-6 24h-6l-3-3 2-9 3-17-2-14-4-21z" fill="#FCF4F0"/>
<path transform="translate(1100,1122)" d="m0 0h11l6 3 2 4v5l-5 1-5-6-5-1-3 3-2 11h12l5 3 3 3 2 7v8l-2 8-4 5-4 2h-10l-6-4-3-7v-34l4-8zm4 26-4 3-1 3v11l3 6 6 1 4-4 1-2v-12l-3-5z" fill="#FEFDFE"/>
<path transform="translate(533,849)" d="m0 0h9l3 6v3l-9 2 1 10 2 9 1 1 3 15 2 8v5l-5 2h-6l-3-10-7-35v-2l-2 1h-6l-3-4 1-5 9-4z" fill="#BD292F"/>
<path transform="translate(869,248)" d="m0 0 1 4-2 5h2l2 5-1 4-1 16-1 6-1 7 3 1 4-6 5-2 6 2-5 5-15 14-8 7-6 5 1-6-6-2-2 1 2-6 11-29z" fill="#D13239"/>
<path transform="translate(310,495)" d="m0 0h5l2 3v13h16l30 1 11 1 1 1-1 9-57-2-1 14-2 2-5-1-1-5 1-26z" fill="#FCF4F1"/>
<path transform="translate(424,259)" d="m0 0 4 1v5l-7 8 1 4 11 12 7 6v2l4 2v2l4 2 11 11 1 3-2 4-4 1-4-3v-2l-4-2-25-25-7-6-5 1-5 6-5 1-2-2 1-4 7-8 10-10 7-8z" fill="#FCF2EE"/>
<path transform="translate(188,483)" d="m0 0 3 1v89l24 4 25 3 28 4 11 2v1h-9l-48-7-8-1h-15l-11 5-10-1-5-2v-27l1-8h2l3 9 1-5h1l1 10 2 6 2-1 1-19v-34l-1-12-1-2 1-11z" fill="#F8BC0C"/>
<path transform="translate(424,1120)" d="m0 0h7l1 55-1 2h-9l-3 1h-9l-5-5-3-9v-12l3-10 6-5h7l6 2zm-9 22-4 4-2 9 1 13 3 4h7l3-2 1-3v-19l-5-5z" fill="#FEFDFE"/>
<path transform="translate(802,1119)" d="m0 0 10 2 5 4 3 8-1 4h-5l-6-9-2-1h-8l-2 5v32l3 6 1 1h7l3-1 3-11h6l1 1-1 10-5 6-8 3-9-1-7-6-3-9v-28l4-10 7-5z" fill="#FEFDFE"/>
<path transform="translate(1059,1122)" d="m0 0 24 1v5l-1 1h-16l-1 13 11-1 5 3 4 8v15l-4 7-5 4-9 1-6-3-4-5v-8h5l5 8h7l3-6v-11l-2-6-8 1-4 5h-5l-1-9v-21z" fill="#FEFDFE"/>
<path transform="translate(394,634)" d="m0 0 5 1 1 1v5l-16 8-29 13-6 3 1 6 3 7-1 4h-5l-6-12-9-22 1-5 5 1 5 10v2l10-4 16-7 15-7z" fill="#FCF4F0"/>
<path transform="translate(582,1121)" d="m0 0 9 2 5 6 1 2v8l-3 6-2 1 2 5 3 5 1 7-2 8-8 7-8 1-7-3-5-6v-7l5-1 3 3 2 5 1 1h7l3-4v-9l-5-5-6-3-1-3 10-5 2-4-1-7-2-2h-6l-6 7h-5l-1-4 3-6 3-3z" fill="#FEFDFE"/>
<path transform="translate(621,581)" d="m0 0 5 1-3 7 1 6 7 3 26 3 19 3 5 5 3 5v7l-3 7-1 2-6-1 1-18-7-1-4-2h-15l-1-1-10-1-15-1-9-5-6-7 2-5 8-6z" fill="#FEB829"/>
<path transform="translate(894,906)" d="m0 0 7 1 3 2-1 8-1 2h-2l-1 6-15 32-4 7-4-1-5-3-1-4 11-23 5-12z" fill="#BD2A2F"/>
<path transform="translate(887,899)" d="m0 0 5 1 1 4-3 11-4 7-5 13-7 14-7 5-3 3-5-1-1-4h5v-3l4-4 3-5 1-4v-7l-5-15 1-7 7-1 4 3h6v-4h2z" fill="#FBDE03"/>
<path transform="translate(724,848)" d="m0 0 11 1v8l-8 50-1 1h-9l-2-2 1-12 5-29z" fill="#BD292F"/>
<path transform="translate(329,1136)" d="m0 0 8 1 5 4 2 7v29h-6l-3-1-6 2-8-1-4-6-1-3v-7l3-5 8-4h9v-6l-3-4-6 1-6 6h-4l1-7 4-4zm1 21-6 3-1 1v7l5 4 7-3 2-4v-7l-1-1z" fill="#FEFDFE"/>
<path transform="translate(382,1136)" d="m0 0 9 1 5 5 2 3 1 10-2 4-20 1 2 9 1 2h7l5-5 5-4 1 1v7l-6 7-5 2-9-1-5-5-3-6-1-5v-9l3-10 7-6zm2 5-5 3-2 4v5l2 1h12l1-1-1-8-5-4z" fill="#FEFDFE"/>
<path transform="translate(1045,683)" d="m0 0 4 2 28 22 16 13 6 5-2 5-10 18-16 27-14 24h-2l1-6 9-17 9-16 3-4 3-8 4-3 1-5h2l2-4h2l-1-8-9-13-5-2-1-3-4-2-9-6-11-6-2-1v-2h-2v-2h-2v-2l-4-2 1-3z" fill="#FED606"/>
<path transform="translate(249,1136)" d="m0 0 10 1 5 5 2 4v11l-2 2h-19l2 11 1 1h7l8-8h3l-1 9-7 6-9 1-6-3-4-5-2-13 2-13 7-8zm2 5-5 4-1 2v6l2 1h12l1-4-3-7-3-2z" fill="#FEFDFE"/>
<path transform="translate(636,1137)" d="m0 0h10l5 3 4 7 1 5v11l-3 9-5 5-9 2-7-3-4-5-2-5v-17l4-8zm1 6-3 5-1 4v12l3 7 1 1h7l4-5v-17l-2-5-2-2z" fill="#FEFDFE"/>
<path transform="translate(648,764)" d="m0 0 4 1 11 10 13 10 7 1v1l-13 2h-32l-13-2v-1l7-1 8-10z" fill="#FEC957"/>
<path transform="translate(821,225)" d="m0 0 6 2v5l-5 2v9l-1 5 1 8v3l-2-1-1 6v2l1 3 2 1-10 7-6 3-1-3v-3l-3 1-2-1-1 2-1-6 10-19z" fill="#D13239"/>
<path transform="translate(461,1138)" d="m0 0h7l1 31 1 2 4 1 5-1 1-2 1-30 1-1h6l1 7v19l-1 13h-8l-4 1h-10l-4-4-1-3z" fill="#FEFDFE"/>
<path transform="translate(523,1136)" d="m0 0h7l6 3 4 5v5h-5l-8-7-5 2v5l14 8 5 6v6l-4 6-7 4h-7l-7-4-3-6v-5l5 1 8 7 5-1 1-6-8-5-6-4-4-4v-8l5-6z" fill="#FEFDFE"/>
<path transform="translate(573,186)" d="m0 0h7l5 5 2 3 5 1v2l6 1 3 12 1 1v6l-3 1-9-6-17-7-6-5-1-8 5-5z" fill="#D2343A"/>
<path transform="translate(688,970)" d="m0 0h9l1 1v42l-1 15h-8l-1-1z" fill="#C03130"/>
<path transform="translate(283,1136)" d="m0 0 10 2 5 6v7l-5-2-7-6-5 1-3 8v12l2 5 2 2h6l7-9h4v6l-5 8-6 3-10-1-6-7-2-6v-15l4-9 5-4z" fill="#FEFDFE"/>
<path transform="translate(888,841)" d="m0 0h2l4 4 18 8 6 2 22 11v5l7 1 4 3 4 8 2 2-5-1-23-13-17-9-19-9-12-5v-2l7 1 3 1-2-1v-3l-2-1z" fill="#CD2D37"/>
<path transform="translate(902,1137)" d="m0 0h10l5 3 4 5v5l-3 1-9-7h-5l-3 4-1 4v11l3 7 1 1h6l8-9 3 1-1 7-3 5-4 3-9 1-6-3-4-6-2-9v-8l2-9 4-5z" fill="#FEFDFE"/>
<path transform="translate(986,992)" d="m0 0 8 4v2h2l3 5 10 6 5 4v2l4 2 7 7 8 6 4 6v5h-2v2l-6-2-5-6-8-7-17-17-13-10-5-3 1-4z" fill="#FBDF03"/>
<path transform="translate(411,338)" d="m0 0 9 1 3 4v8l-5 6-6 1-10-2-1 2-1-4h-12l-2-2-7-3 1-3 10-1 16-6z" fill="#D2323A"/>
<path transform="translate(699,268)" d="m0 0 16 1 18 5 20 7 15 7 22 12 8 7 3 3-1 2-4-1-6-4v-2l-7-2-10-6-7-3-18-8-9-3-7-2-5-3-3 1v-2l-8-1-5-3h-7v-2l-5-1z" fill="#EC9424"/>
<path transform="translate(925,578)" d="m0 0 1 2 14 2 15 4-1 9-3 7h-10l-12-2 1-2-6-2 1-3h-2l1-6 1-1z" fill="#D13139"/>
<path transform="translate(974,426)" d="m0 0 2 1-1 4 5 2 1 4-2 5-3 3 11 1v1h-23l-27-1-3-2 17-8 10-4 9-4z" fill="#D2353A"/>
<path transform="translate(546,970)" d="m0 0h7l1 1v57h-9v-57z" fill="#BF2B30"/>
<path transform="translate(397,313)" d="m0 0h3l5 9 2 4-3 1-1 2 6-3 6-1 6 1v2l5 2v2l-9-3-9 1-10 3-12 3-7-1-3-3-1-6 3-6 3-3h6l2 1h6z" fill="#D2353A"/>
<path transform="translate(796,204)" d="m0 0 5 1 3 3 1 3-1 2 2 1 1 3h7l1-5 4 1h-3l-1 5-6 12-4 6-5-1-13-7-1-3 8-17z" fill="#D2333A"/>
<path transform="translate(577,433)" d="m0 0h28l2 2 1 16 4 4 1 8-2 1-10-1v-1l9-1v-6l-3 1h-23l2-2 8-1 6 1v-2h2l1-16-5 1 1 14-7 1 2-5h2l-2-7-3-1 1 6-2 4h-1l-1-10-2-1v6l-2 2-1-1v-6h-2l-2 10-1 2h-2l-1-11h-2l-1 12h2v4l-6-1 1-3v-16l2 1v2l3-3z" fill="#E5884D"/>
<path transform="translate(801,879)" d="m0 0 13 2v2h-2l6 7 3-2-3 10-9 26-2 5h-1l1-9 3-6 1-10h3v-9l-3-1-3 9v3h-9l2 5 3 4-2 7-1-2v-3l-10-2-2-2 2-9 4-4 5 2h5l1-8v-2l-8-1-1-1v-6z" fill="#F9CA08"/>
<path transform="translate(667,565)" d="m0 0h13l6 2 9 1 4 3v2l4 2 1 1v9l-6 11-7 6-5 2h-6l-2-1 1-5 11-5 5-6-3-3-1-4 3-1-7-3-10-4v-2l-6-3z" fill="#FDB729"/>
<path transform="translate(469,352)" d="m0 0h2v2h-2l-2 4-9 10-12 17-10 16-8 15-10 23-7 23-1 5-4 2h-3l-2 1-2 3 1-9 4-15 2-9 4-9h1v6l1 1 1-4 2-1 1 1 3-1 3-10 10-21 5-8 11-16 9-12 10-11z" fill="#E08F25"/>
<path transform="translate(582,520)" d="m0 0h15l4 2v2l-8 1-3 2v-3l-1-1-14 16-11 9-2 2h-10l-7-3-3-2 8-2 11-8 15-12z" fill="#EB9621"/>
<path transform="translate(1027,868)" d="m0 0h3v2l5-2 13 10 14 11 13 11 11 9 15 13 20 20-2 3-6-6v-2l-4-2-4-4v-2h-4l-2-4-5-2-1-3-6-2v-2l-4-2v-2l-4-2-3-1-4-6v-2h-2l-1 2-2-4-4-1v-2l-4-2v-2l-3-1-5-6-2 2v-2l-5-2-5-5-2-1v-2l-6-2-4-3z" fill="#D1333A"/>
<path transform="translate(639,542)" d="m0 0 4 2 5 5v12h-25l-17-2-1-5 4-4 6-1 2 2h10l5-3z" fill="#FEC853"/>
<path transform="translate(1128,1119)" d="m0 0 4 1 5 10 3 14v21l-4 16-3 7-5 1 1-10 2-11v-26l-3-17-1-5z" fill="#FEFDFE"/>
<path transform="translate(187,1118)" d="m0 0h2l1 3-4 19-1 10v10l2 17 3 11-5 1-3-5-4-13-2-12v-10l3-15 4-11 2-4z" fill="#FEFDFE"/>
<path transform="translate(517,395)" d="m0 0h1l1 7 1 5 14 1h46l3 1 5-2 2-2 2 1v7l-1 1-54 1h-18l-3-1-1-6v-8z" fill="#F3BDA0"/>
<path transform="translate(649,520)" d="m0 0h8l2 1v2l4 1 2 1 1 9-3 6-6 4h-9l-2-1v-2h-2l-2-4-3-2 1-6 3-6z" fill="#FED310"/>
<path transform="translate(527,234)" d="m0 0h8l6 9 6 12 4 3-7-1-3 1v2h-2l-1 2-6-1v-2h-4l-2-2-5-12-2-3 1-5z" fill="#D1323A"/>
<path transform="translate(651,206)" d="m0 0h15l5 3 3 4v9l-6 7h-17l-1-9z" fill="#D13039"/>
<path transform="translate(673,1119)" d="m0 0 5 1-1 4-6 3-2 10 8 1v4h-7l-1 35-4 1-3-2v-18l-1-14-4-4 1-2 3-1 1-9 2-6z" fill="#FEFDFE"/>
<path transform="translate(878,309)" d="m0 0 5 1 7 8-1 5-7 8-6 5-2 2-2-4h-7l-3-2-2-4h-3v-2l5-3 11-10z" fill="#D2333A"/>
<path transform="translate(332,447)" d="m0 0 9 1 3 1v7l-3 14-4 1-9-2 1-2-3-2-7-2-3-3 1-5 2-5 6-2z" fill="#D02F39"/>
<path transform="translate(974,465)" d="m0 0 5 1 1 2 5 2 1 10-3 1 11 1v1h-21l-28-1-4-2 21-10z" fill="#D13039"/>
<path transform="translate(712,519)" d="m0 0h11l5 3-1 3 3 5 11 9 10 8v3l-6 1-14-12-15-6-7-4h-27l-8 5-3-1 7-5 8-2h21l11 5-4-5-9-1 2-4z" fill="#E4843D"/>
<path transform="translate(371,391)" d="m0 0 7 2 5 6 2 3 6 2-3 9-3 6-3 2-12-5-6-4 3-9z" fill="#D1313A"/>
<path transform="translate(1094,338)" d="m0 0h4v3l-42 33-25 20-3-1 2-5 4-4 10-8 8-5h2v-2h2l2-4 7-6h2l2-4 4-5 15-10z" fill="#FED606"/>
<path transform="translate(931,1127)" d="m0 0h4l1 9 7 3v4h-7v26l7 4-2 4-7 1-5-3-1-6-1-25-4-3v-3l4-2 3-8z" fill="#FEFDFE"/>
<path transform="translate(749,326)" d="m0 0h7l3 5 6 20 1 7v19l5-1-1 3-4 2v-2l-4-1-1-23-6-21-1-5-7 2-3 7-3 14-1 8v19l-4 1-1 3-3-3-16-8-5-2-3-3-7-3 3-1 16 6 13 7h3l1-18 3-19 3-8z" fill="#E17C3D"/>
<path transform="translate(636,271)" d="m0 0 12 1v1l-26 2-26 5-20 6-14 5-10 5-23 11-4 3-7 4-10 7-14 11-12 11-3 1v2l-7 5 2-4 8-8h2l1-3 8-7 7-9 3-3h5l6-5 8-4 15-9 12-6 7-3 15-6 19-5 10-3 16-3 8-1z" fill="#E4843E"/>
<path transform="translate(1e3 1122)" d="m0 0h5v55l-1 1h-5l-1-1v-42l1-2-4 2h-6l1-5 7-6z" fill="#FEFDFE"/>
<path transform="translate(345,380)" d="m0 0 1 2h6l4 4 2 5 3 1 1 5-6 12-6-1-10-4-2-2 1-6z" fill="#D1313A"/>
<path transform="translate(544,417)" d="m0 0h30l3 2v5l-10 1h-24l-28-1-2-2v-3l2-1z" fill="#FCF1ED"/>
<path transform="translate(666,540)" d="m0 0h2l3 6 5 3v2h20l1 4-1 3-5 3h-30l-1-1v-11z" fill="#FEC954"/>
<path transform="translate(781,236)" d="m0 0 6 1 11 5 3 1-1 5-4 8-11 1-4 2h-4l-2-4 1-2-5 3 2-5z" fill="#D2323A"/>
<path transform="translate(352,451)" d="m0 0 17 2-3 2 2 5h2l3 9v2l-9 3-7 1-8-2v-7z" fill="#D1313A"/>
<path transform="translate(661,580)" d="m0 0h10l10 1 6 4v5l-5 4-10 4h-13l-1-4 2-12z" fill="#FFC954"/>
<path transform="translate(410,283)" d="m0 0 5 1 8 7 25 25 6 5 2 2-6-1-14-10-5-3-5-5v-2l-5-2-6-1-7-2v-2l-8-1-1-2 6-3z" fill="#D3373A"/>
<path transform="translate(304,1120)" d="m0 0h7l1 56-2 2h-5l-1-1z" fill="#FEFDFE"/>
<path transform="translate(620,564)" d="m0 0 47 1 9 3 1 4 9 2 7 4 2-1-1 4-2 1 1 4 3 1-6 7-3 1v-2h2l1-10-11-5-13-1v-2h-7v-3l-7-3h-11l-4-2-17-2z" fill="#F09A1E"/>
<path transform="translate(651,177)" d="m0 0h10l7 1 4 4v9l-4 6-1 1h-16z" fill="#D1323A"/>
<path transform="translate(963,454)" d="m0 0h12l2 2-8 4-11 5-23 10-1-2-2-1-1-1-3-6v-5l13-2v2l8-2 11 1h5z" fill="#D1313A"/>
<path transform="translate(787,860)" d="m0 0 5 1-3 15-5 5-2 3h-2l-2 6-5 5-3 5-3 7-7 6-1-4 12-23 6-11h2l1-5 4-7h2z" fill="#FBDD03"/>
<path transform="translate(515,207)" d="m0 0h10l4 4 1 3v8l-5 5-5 3-5-1-5-8-3-9z" fill="#D2353A"/>
<path transform="translate(873,980)" d="m0 0 5 1 9 3 11 9 16 9 5 5 3 1 3 7-7-1-15-10-15-9-14-8z" fill="#FBDD04"/>
<path transform="translate(727,523)" d="m0 0 5 2 16 13 11 7h6l-2 2-7 2-7 3-14 2 1-4-4-2v-2h-3l-2 7-1-3 1-7-8-8 3-1 10 5 7 6 6 5 6-1-5-5-13-11-6-5-1-4z" fill="#EB9228"/>
<path transform="translate(899,290)" d="m0 0 7 1 6 9-1 6-8 7-8-1-7-7-1-4z" fill="#D3383A"/>
<path transform="translate(508,434)" d="m0 0 16 1 6 2 1 8-3 5-2 1h-19l-2-1 1-8z" fill="#F7DDD4"/>
<path transform="translate(962,589)" d="m0 0 12 1 8 2 1 4-2 8-4 6h-9l-5-3-2-3v-12z" fill="#D2343A"/>
<path transform="translate(300,398)" d="m0 0 1 3-7 22-7 28-4 19-5 1 3-10h-2l-1-7 3-7 2-10 2-1 3-12 2-3 1-9 5-12z" fill="#FBC10C"/>
<path transform="translate(512,1118)" d="m0 0 3 1-3 10-12 35-6 18-3 3-3-1v-6l3-5 13-40 5-12z" fill="#FEFDFE"/>
<path transform="translate(827,718)" d="m0 0v3l-6 5-8 8h-2v2l-11 8-8 6-9 5-6 5-7 4-8 3-13 6-7 3-7 2-5 2-13 2-10 3-8 1h-13v-1l20-3 19-5 21-7 20-9 17-9 19-13 17-14z" fill="#E4843E"/>
<path transform="translate(716,173)" d="m0 0 8 1 4 6v3l6 2-4 7-10 14-3-1-2-13v-13l-1-5z" fill="#D1323A"/>
<path transform="translate(537,351)" d="m0 0 43 2 9 1-4 2-13 1-5 3-6 1h-26l-12 1-1-2 7-3 5-1 2-2-2-2z" fill="#E4843E"/>
<path transform="translate(351,1137)" d="m0 0 5 1 4 1 3-2h5l1 3-3 4-7 2-1 6-1 25-5 1-2-5v-35z" fill="#FEFDFE"/>
<path transform="translate(912,625)" d="m0 0h1l1 5 23 10 3 3-5 2-14 2h-8l-3-1v-2h-4l-1-3 2-5 3-1v-6z" fill="#D2333A"/>
<path transform="translate(650,493)" d="m0 0 9 1 4 2v9l-5 7-1 3-2 1h-6l-4-9-1-10 3-3z" fill="#FEC44B"/>
<path transform="translate(458,231)" d="m0 0h9l4 4v2l4 2 5 5 6 3 5 5 4 3v2l5 2v2h2l1-2h3l7 3 3 2 1 8-2 5h-3l-1-4-15-12-14-11-16-13-5-3h-4z" fill="#D2343A"/>
<path transform="translate(653,601)" d="m0 0 16 2 7 1 5 5 3 5v7l-3 7-1 2-6-1 1-18-7-1-4-2h-15v-3l4-2z" fill="#FDB728"/>
<path transform="translate(687,537)" d="m0 0 5 1v5h2v2l6-4h6l5 3-1 7-5 4-4 1-4-6-7-3-1 3-2 1h-8l-5-3-3-3v-2l7 2h7z" fill="#BD292F"/>
<path transform="translate(543,435)" d="m0 0h12l1 2-1 15 8-2 2-10 2-1v9l-4 7-5 1-7-2h-2l-13 1v-2h-5l3 2h-9v-2l3-1 2-10 1-4h1l1 12 5-1v-10l2-2 1 1 1 13h6l3-3 1-8h-5l-1-3-3-1z" fill="#E37E49"/>
<path transform="translate(393,904)" d="m0 0 4 1 2 6 1 2 6 1 4 7v2h2l2 16 1 4-5-1-2-4h-2l-9-19-4-6z" fill="#FADE03"/>
<path transform="translate(428,261)" d="m0 0h1v5l-2 2 4 4 3 8 3 3 3 5v2h2l1 4h3v3l4 2-1 2h4l3 7-1 3-9-9-6-5-16-16-4-5 1-4 6-7z" fill="#D3383A"/>
<path transform="translate(354,931)" d="m0 0h2v2l3 1v2l4 1 3 5 3 4 3 3v4h2l1 2v6h-2l-1 3-1-2-3-1-3-5-5-1-4-1v-10l-3-6-1-6z" fill="#FBDE03"/>
<path transform="translate(597,352)" d="m0 0h1v60l-2 5-11-1-48-1v-1h56l1-52 2-1z" fill="#E3833D"/>
<path transform="translate(359,640)" d="m0 0h5l7 2 4 1-28 13h-4l-4-8v-3h2l1-3 7-1h9z" fill="#D2333A"/>
<path transform="translate(636,581)" d="m0 0h10l2 1v14h-11l-10-2-1-3 2-6 3-3z" fill="#FFCA55"/>
<path transform="translate(855,256)" d="m0 0 3 1-10 25-5-1-9-8 2-4 10-7z" fill="#D3393A"/>
<path transform="translate(1092,734)" d="m0 0h2l-2 5-16 28-10 17-9 15h-2l1-6 9-17 9-16 3-4 3-8 4-3 1-5h2l2-4h3z" fill="#FED509"/>
<path transform="translate(463,248)" d="m0 0 5 1 14 11 3 3-1 4-6 4-3 3h-4l-5-15z" fill="#D43E3A"/>
<path transform="translate(962,497)" d="m0 0h11l9 2 2 4-5 6h-23l-2-1v-3l3-2 2-4h3z" fill="#D12D3A"/>
<path transform="translate(911,570)" d="m0 0h1v18l-7 25-3 8-4 3-3-1 6-19 3-1-1-7 2-6 2-2 1-13 1-4z" fill="#EC9523"/>
<path transform="translate(650,271)" d="m0 0h19l15 1 24 4 28 8 20 8 19 10 2 3-5-2-19-9-24-9-23-6-31-5-26-1z" fill="#E4843E"/>
<path transform="translate(1112,577)" d="m0 0h5l-3 2-26 4-42 6-13 2h-5l-4 17-6 24-6 20-1-4 7-25 6-26 3-7 9-3 24-3z" fill="#E68E2C"/>
<path transform="translate(378,651)" d="m0 0 2 1-1 3-2-1-4 6-3 1-3-1v6l-5 5-7 3-4 1-3-6 1-5 10-5z" fill="#D2343A"/>
<path transform="translate(897,606)" d="m0 0h1l1 7-3 10 5-2-1 6-2 2-1-3-2 4h-2v3h-2l-1 4-3 3-9 19-5 6-2-2 11-21 14-35z" fill="#DF8D29"/>
<path transform="translate(765,431)" d="m0 0 7 2 1 2-7-2v16l-3 16-2 9-4 8-5 2-5-1-4-5-5-16-1-7v-15h1l2 23h2l3 12 4 5 5-1 3-5 4-17 1-7 1-18z" fill="#E3823D"/>
<path transform="translate(655,629)" d="m0 0 14 2 9 5 3 5-1 7-5 5-5-1v-14l-14-2-2-3z" fill="#FEB829"/>
<path transform="translate(641,495)" d="m0 0 3 1-1 7 2 1 4 10v2l8-1 1-4 4-6h2l1-2-2 9-2 4v3l4 2 3 2h14v1l-16 1-1 3v-3l-6-2v-2h-10l-5 2h-3l-2-1 6-4-1-5-5-10v-6z" fill="#DC733A"/>
<path transform="translate(665,843)" d="m0 0h4v9h2l1 3v10l-1 6-5-1-3-2-2 2v-25z" fill="#FDE701"/>
<path transform="translate(279,587)" d="m0 0 3 1 3 9 6 31 3 10v4h-2l-4-15v-6l-3-1-2-3-2-9-5-7-9-1v-4h7l5-3z" fill="#FDC705"/>
<path transform="translate(497,462)" d="m0 0h36l78 1-1 2-20 1h-19l-58-1-15-1z" fill="#CC4B35"/>
<path transform="translate(888,750)" d="m0 0 7 1 17 6v1l-7 2-2 2-8 1-9 1-4-2-6 5 2-5 9-10z" fill="#D2353A"/>
<path transform="translate(811,893)" d="m0 0 4 2-1 9h-3v10l-4 10-1 5-6 1v-6l3-7-2-5-2-2v-4l6-1 3 1-1-3 3-9z" fill="#FDE601"/>
<path transform="translate(950,648)" d="m0 0 5 1 16 7-1 4 1 3-1 4-3 2-6 1-11-19z" fill="#D3373A"/>
<path transform="translate(892,700)" d="m0 0h3v2l4 1 9 6-1 3 5 1v1l-12 3h-7l-6-9v-7z" fill="#D1303A"/>
<path transform="translate(511,414)" d="m0 0h2l1 8 1 1 51 2v2h6l1 4-1 1h-8v-5h-21v5l-8 1-3-5-4-1-13-1-4-2z" fill="#E4843E"/>
<path transform="translate(490,272)" d="m0 0h6l6 5-5 4-3 1v2l-7 2-5 1-1 2-3-2v5l-3-4v-5l9-7z" fill="#D2353A"/>
<path transform="translate(916,166)" d="m0 0 1 3-7 17-6 16-8 20-3 6 1 5 7 7 11 9 5 5v2l4 2 7 8 5 6 5 5 6 7-1 2-14-15-7-8-19-19-11-9-2-2 1-7 6-13 11-28z" fill="#E38D2C"/>
<path transform="translate(580,547)" d="m0 0h1l2 8 10 11 11 6 9 2 5 2h27l5 1v1l-26 1 1 2-9 2-2-5-11-2-12-6-8-8-3-5v-2l-3-1 2-1z" fill="#E4843C"/>
<path transform="translate(1111,469)" d="m0 0 13 1 11 2 1 5-1 6-6-2-3-2h-6l-4 2-5-2-1-9z" fill="#FED606"/>
<path transform="translate(188,483)" d="m0 0 3 1v90h-3l-1-62-1-12-1-2 1-11z" fill="#F6B515"/>
<path transform="translate(911,722)" d="m0 0 4 1v6h3v2l-2 2 1 8 1 5v2l-5-1-1 2-9-15 3-5z" fill="#D1323A"/>
<path transform="translate(589,522)" d="m0 0 2 1-2 6-11 15-8 8v2l-6-1v-2l-6 1-4-2 8-1 11-10 5-5 8-9h2z" fill="#F5A730"/>
<path transform="translate(437,384)" d="m0 0v3l-1 3h-2l-2 6-7 13-1 7h-3l-1 9-4 4 1 4-1 3-2-1-2 3-2-1 1-10 8-18 6-11 3-1 1-2h2l1-4 1-2h2l1-4z" fill="#EC9721"/>
<path transform="translate(635,922)" d="m0 0h26l10 2v3l-2 1h-37l-2-4z" fill="#FDE701"/>
<path transform="translate(784,409)" d="m0 0 6 1 10 8 10 9 7 7 3 6v5l-3 3-9 1-22-7-2-2 6 1 6 2 17 2h3l-1-7-6-7v-2l-4-2-10-9-11-8z" fill="#E1763D"/>
<path transform="translate(824,279)" d="m0 0 5 1 11 8 3 3-1 7-2 3v-5l-4-1-3-3-10-2-6-5 5-5z" fill="#D2363A"/>
<path transform="translate(749,326)" d="m0 0h7l3 5 6 20 1 7v19l5-1-1 3-4 2v-2l-4-1-1-23-6-21-1-6-5-1z" fill="#E79053"/>
<path transform="translate(728,206)" d="m0 0 3 1v3l3-1v6l-4 6h-2l-2 6-3 4-4-1-2 2 1-9 3-8z" fill="#D13139"/>
<path transform="translate(718,521)" d="m0 0 4 2 14 12 14 11 2 3-4 2-4-1-11-9-9-9-6-9z" fill="#BD292F"/>
<path transform="translate(517,395)" d="m0 0h1l1 7 1 5 22 2 4 2-2 1v2l-7 1h-18l-3-1-1-6v-8z" fill="#FBEFE9"/>
<path transform="translate(585,523)" d="m0 0h2l-2 4-9 11-13 11-1 1h-8l2-4 8-6 13-13z" fill="#BD292F"/>
<path transform="translate(896,426)" d="m0 0 3 4 10 30 5 25 2 14 1 14v36h-1l-1-20-1-22-4-30-4-16-4-15-6-16z" fill="#E4843E"/>
<path transform="translate(970,417)" d="m0 0 3 1-9 4h-2v2l-15 6-17 8-2-4 2-1 1-3 12-6 10-2 3-2h7z" fill="#D2373B"/>
<path transform="translate(247,298)" d="m0 0h2l-2 5-14 25 1 5 13 11-3 1-10-5-5-5-3-4 1-4 7-10 4-5 3-5z" fill="#F8BB0C"/>
<path transform="translate(440,106)" d="m0 0m-1 1m-4 1h4l-1 4-18 10-21 12-5 3h-2l2-4 6-5 6-2v-2l4-2h3v-2h4v-2l3-2h3v-2l4-2h4v-2z" fill="#F6B70F"/>
<path transform="translate(252,470)" d="m0 0h8l11 2v1l-51 7h-4v-2l5-2h3v-2l5-3 10 2 2-1h11z" fill="#F8BB0D"/>
<path transform="translate(238,335)" d="m0 0 10 4 6 3v2l3 1 5 5 5 4 4 4v2l4 2 5 6-5-1-11-9-14-11-11-9z" fill="#CB2B36"/>
<path transform="translate(654,612)" d="m0 0h11l3 1 1 2v8l-1 2-8 1-6-2-1-11z" fill="#FFC74E"/>
<path transform="translate(597,412)" d="m0 0h1v13l-2 2h-22l4-1 2-8 3-1h13z" fill="#E58A48"/>
<path transform="translate(417,747)" d="m0 0 5 1 4 6-2 4-11 2-4-1v-2l-9-3 3-2z" fill="#D2343A"/>
<path transform="translate(501,454)" d="m0 0 42 2-1 3-10 1h-8v-2l-9 1-2 2h-16v-3z" fill="#FBECE6"/>
<path transform="translate(312,971)" d="m0 0 5 1 2 5 2 2 2 4h2v2h2l1 8 6 3 3 5-2 5-4-2-7-10-3-5-4-6-1-6h-2z" fill="#FCE003"/>
<path transform="translate(521,405)" d="m0 0h67v3l-6 2-2-1h-46l-11-1z" fill="#E4843E"/>
<path transform="translate(961,774)" d="m0 0 9 2 1 2 11 2 10 6 6 2 1 2 4 1 8 4 1 2-7-1-38-16-6-3z" fill="#CD2C37"/>
<path transform="translate(710,543)" d="m0 0h3l1 4-6 10-3 1-2 2-5 2 4 2 2 2-5 1-8-5 1-3 4-1v-7l-8 1h-10l-2-2h11l3-3 6 1 4 4 2 3 6-3 2-3z" fill="#E88F2C"/>
<path transform="translate(946,772)" d="m0 0 7 1 30 13-3 1-29-12-4-1-11 12-7 8-11 12-7 7-8 7-4 2 6-7 25-25 7-8z" fill="#E68E2B"/>
<path transform="translate(602,541)" d="m0 0h7l3 3-1 6-7 6-5-1-3-3v-6z" fill="#BE292F"/>
<path transform="translate(569,436)" d="m0 0 2 1v2l8-2h13l1 2h-2l1 6-2 4h-1l-1-10-2-1v6l-2 2-1-1v-6h-2l-2 10-1 2h-2l-1-11h-2l-1 12h2v4l-6-1 1-3z" fill="#E89472"/>
<path transform="translate(611,57)" d="m0 0 1 3-5 34-5 41-2 4 1-13 1-9 1-33h2l1-2 1-16h2l1-8z" fill="#F2AB19"/>
<path transform="translate(533,415)" d="m0 0h52l5 1v1l-10 1v5l-2 3h-4v2l-8-1 1-3h10l-1-5-6-1-37-1z" fill="#C12D31"/>
<path transform="translate(633,636)" d="m0 0 3 1-2 6 1 9h3l1 3-1 1h-10l-4-5 2-10 2-3h5z" fill="#FEB829"/>
<path transform="translate(736,139)" d="m0 0 8 1 23 6 6 2-2 4-3 1-7-4h-9l-4-3-8-1-4-5z" fill="#FED609"/>
<path transform="translate(435,905)" d="m0 0h2v2l9 2 3 6 4 4-1 4 2 4-4 1-1-4h-4l-6-8-4-9z" fill="#FADC04"/>
<path transform="translate(738,852)" d="m0 0h4v14l-2 1-2 6-1 6-4 2v-18l2-8h2z" fill="#FBDF03"/>
<path transform="translate(638,611)" d="m0 0h9l2 4-1 10h-9l-3-3-1-2v-6z" fill="#FFC954"/>
<path transform="translate(897,625)" d="m0 0h1v7l-6 13-8 16-3 1-1-4 7-14 2-7 3-5 1-3h2z" fill="#EC9524"/>
<path transform="translate(362,793)" d="m0 0 4 1 3 4 1 3 4 2v2l4 1v2l4 1 4 8 1 4h-3l-17-17-5-6z" fill="#FED605"/>
<path transform="translate(267,693)" d="m0 0 4 1-12 10-12 9-11 9-5 3-2-3 4-4 13-9 8-6 3-3h2v-2l4-2 1-2z" fill="#F9BD0A"/>
<path transform="translate(615,527)" d="m0 0 13 1 5 3 2 3v7l-6 3h-2l1-3h3l-3-1 1-4-9-1-3-1v-2l-2-1z" fill="#FCB52B"/>
<path transform="translate(619,537)" d="m0 0h5l-2 4 1 4 7-1 7-3-2 5-5 5-3 1h-10l-1-1-1-9 1-3z" fill="#E3843D"/>
<path transform="translate(493,459)" d="m0 0 4 1 1 3 15 1 64 1h33v1l-10 1h-35l-63-1-6-2z" fill="#E4843E"/>
<path transform="translate(389,938)" d="m0 0h5l2 3v8l-1 2h-2v2h-2v2l-4-1-4-8 1-5z" fill="#FCE102"/>
<path transform="translate(394,165)" d="m0 0 3 4 14 35 5 13 4 10-1 5-5 4-1-2 4-3-1-10-4-2-3-8-2-5-2-10-3-8v-3h-2l-6-17z" fill="#EFA420"/>
<path transform="translate(290,948)" d="m0 0 4 1 11 16 3 3 5 9 7 9 4 6-5 1-1-6-9-8-2-6h-2l-2-4v-3h-2l-7-10z" fill="#CE3037"/>
<path transform="translate(602,788)" d="m0 0 2 1v1h15l14-1h27l12 1v1l-38 1-5 1h-25l-8-2v-1z" fill="#E4843E"/>
<path transform="translate(469,352)" d="m0 0h2v2h-2l-2 4-9 10-12 17-10 16-8 15-10 23-1-3 8-19 8-16 8-13 12-17 12-14z" fill="#E4843D"/>
<path transform="translate(955,354)" d="m0 0h1v12 3l-2 5h-4v4h-4v4l-8 3-1 2-6-1-2-2 13-8 9-7 3-5z" fill="#D43B3A"/>
<path transform="translate(539,350)" d="m0 0h14l34 1 10 1v12l-3-2-1-6h-4v-2l-30-1-20-1z" fill="#C52E33"/>
<path transform="translate(687,537)" d="m0 0 5 1v5h2l1 5-5-1-1 3-2 1h-8l-5-3-3-3v-2l7 2h7z" fill="#DB6F3A"/>
<path transform="translate(808,361)" d="m0 0h7l4 3 1 7-3 3 1-5-4-4-13 1-12 4h-2v2l-9 3-6 3-3-1 9-6 15-6 3-1h7v-2z" fill="#D9623A"/>
<path transform="translate(377,916)" d="m0 0 7 2 3 5-1 5-3 2-7-1-6-12h6z" fill="#FDE401"/>
<path transform="translate(1027,868)" d="m0 0h3v2l5-2 13 10 9 7v3l-5-1-1-2-2 2v-2l-5-2-5-5-2-1v-2l-6-2-4-3z" fill="#D0303A"/>
<path transform="translate(586,438)" d="m0 0 3 1 1 9 1-9 4 1 1 1v6l-7 6h-6l2-3-3-2-1 4h-3l2-10 1-3h2l1 6z" fill="#F9E0D4"/>
<path transform="translate(689,362)" d="m0 0h9l15 6v1l-7-1-8-3h-12l1 7 7 9 13 11 4 4-2 1-8-7-7-4-6-8-2-4-3-1-1-5 2-5z" fill="#D24B38"/>
<path transform="translate(762,860)" d="m0 0 6 3-1 6-7 13-3-1v-17h4z" fill="#FDE701"/>
<path transform="translate(630,609)" d="m0 0 3 1-1 5-4-3-1 10v4h2v2l2-1-2-5h3l3 3v3l-5 2-7-1-3-5 2-10 5-4z" fill="#FFBA2A"/>
<path transform="translate(462,910)" d="m0 0 4 2 5 5 4 5 5 5-7 2-7 4-2-1 3-4-3-10-2-5z" fill="#F3B310"/>
<path transform="translate(455,880)" d="m0 0 6 1 1 4h2l1 7-3 5-3 1-3-4-3-7v-6z" fill="#EFAE13"/>
<path transform="translate(648,521)" d="m0 0h7l2 6-2 6-1 1h-7l-4-4v-5z" fill="#FDFCFD"/>
<path transform="translate(833,888)" d="m0 0 4 1 3 2 1 4-3 6-4 4h-5l-1-1 1-7z" fill="#FBD604"/>
<path transform="translate(637,866)" d="m0 0 1 2 3 1 4 10 1 4-2 5h-8v-18l1 2v-3z" fill="#FCE501"/>
<path transform="translate(602,109)" d="m0 0h1l-1 17-3 18-2 6-4-1 3-4-1-11 2-3 1-17 1-3z" fill="#FDC509"/>
<path transform="translate(938,652)" d="m0 0 5 1 2 5-1 2h-2v2h-8l-4-2-1-2-13-2v-1z" fill="#D2353A"/>
<path transform="translate(954,936)" d="m0 0 5 3 1 5-3 1-1 4-6 7h-4l2-13h2l2-4z" fill="#FDE201"/>
<path transform="translate(595,385)" d="m0 0h1l1 9v18l-1 5-11-1-48-1v-1h56v-9h2z" fill="#D4563D"/>
<path transform="translate(893,838)" d="m0 0h6l6 2 1 2h3l1-2 4 10 2 4-6-1-4-2v-3h-2l-2-3-6-1-3-4z" fill="#FCD206"/>
<path transform="translate(640,471)" d="m0 0 3 1-5 5v8l1 4h24v1h-12v2l9 1 1 2-11-1-5 3v7l-3-1 1-7-4-1-3-9-1-2v-6l4-6z" fill="#E78D43"/>
<path transform="translate(249,460)" d="m0 0h8v2l3 1-2 2-5 2h-7l-13 2-4 2v-3l6-2v-2h2l1-3h10z" fill="#FDC804"/>
<path transform="translate(655,639)" d="m0 0h7l5 5 1 3h-2l-1 4-1 1h-8l-2-7v-5z" fill="#FEC851"/>
<path transform="translate(317,520)" d="m0 0 25 1v1l-15 1 1 1v5l-3 3-6 1-1-3-1 5h-1v-14z" fill="#D2363A"/>
<path transform="translate(1031,252)" d="m0 0 9 2 4 8 2 2-1 9-3-3-6-12-7 1-5 2-3-1h2l2-4z" fill="#F7B90F"/>
<path transform="translate(685,190)" d="m0 0h2v7l-4 11-4 1-5-5 1-4 5-8 2 1z" fill="#D1323A"/>
<path transform="translate(727,523)" d="m0 0 5 2 16 13 3 3-6 2-17-14-2-5z" fill="#DF8E26"/>
<path transform="translate(347,963)" d="m0 0 10 1 2 3v7l-3 4-5-1-5-10z" fill="#F6CC09"/>
<path transform="translate(536,860)" d="m0 0h6v3l7 2 1 3-1 7-2 5-4-5v-2l-3-1-1-4h-2l1-7z" fill="#FDE601"/>
<path transform="translate(710,396)" d="m0 0 4 1 8 5h2l2-2v7l-5 1-13 9-14 12-7 8-2 7-2-4 4-7 11-11 11-9 10-7-2-4-7-5z" fill="#C32E32"/>
<path transform="translate(819,870)" d="m0 0 5 1v8l-2 8-5 4v-3l-4-2-1-3h2v-2h2l1-6z" fill="#FCE302"/>
<path transform="translate(334,942)" d="m0 0h7l5 3v9l-2 2-5-1-6-9z" fill="#F5CA0A"/>
<path transform="translate(969,795)" d="m0 0 10 2v2l5 2 10 5 8 2v2l3 1v2l-5-1-31-13z" fill="#FED50A"/>
<path transform="translate(323,498)" d="m0 0 9 1 2 3 4 2-9 4-11 1 1-4 3-6z" fill="#D02C39"/>
<path transform="translate(542,438)" d="m0 0 10 2v8l-4 4h-6l-1-1v-12z" fill="#F0B496"/>
<path transform="translate(639,639)" d="m0 0h8l2 1v12l-1 1-7-1-4-10z" fill="#FFC953"/>
<path transform="translate(728,434)" d="m0 0 3 1-15 7-14 5-10 2h-6l-1-5 7 1 16-4 15-6z" fill="#D8553B"/>
<path transform="translate(418,904)" d="m0 0 3 1 11 17v3l-2 1h-6l-4-13-2-5z" fill="#F5B90C"/>
<path transform="translate(839,248)" d="m0 0h7l3 3-14 10-6 4h-2l1-4 1-2-2-1 4-1h2l4-7h2z" fill="#D2373A"/>
<path transform="translate(436,707)" d="m0 0 1 2h4l1 5 2 1-2 6 5 2-2 1-10-3-2-2-1-10z" fill="#D2363A"/>
<path transform="translate(650,493)" d="m0 0 7 1-1 9-5 2h-5l-2-4 1-5z" fill="#FEFDFE"/>
<path transform="translate(950,1167)" d="m0 0h5v7l-5 12-5 1 1-8 2-10z" fill="#FEFDFE"/>
<path transform="translate(494,876)" d="m0 0h2l8 14 1 7-1 1h-6l-1-1-3-16z" fill="#F4B80E"/>
<path transform="translate(1132,576)" d="m0 0h1l1 7v8l-7 2-11 1 1-3 11-7z" fill="#FED607"/>
<path transform="translate(632,661)" d="m0 0h7l1 5-6 2 4 10-8-1v-3l-2-1v-6z" fill="#FCB52A"/>
<path transform="translate(263,1019)" d="m0 0 2 1-2 13-5 6-3 1 1-13 3-5z" fill="#FCE201"/>
<path transform="translate(668,714)" d="m0 0 1 2 1 8h-2l-2 4-6 7h-4v-8l7-3 3-9z" fill="#ED9929"/>
<path transform="translate(913,547)" d="m0 0 3 3v13l-3 20h-1l-1-13-1-4 1-15z" fill="#E4843E"/>
<path transform="translate(748,327)" d="m0 0h6v3h-6l-4 8-3 14-2 21-2-1v-14l3-19 3-8z" fill="#D6573C"/>
<path transform="translate(888,627)" d="m0 0 2 1-1 7-4 9-8 16-5 5-1-2 11-21z" fill="#E3853A"/>
<path transform="translate(634,791)" d="m0 0h19l1 3-16 1-4 2h-6l-3-2-13-1v-1l17-1z" fill="#D02C39"/>
<path transform="translate(665,656)" d="m0 0h5l2 4 2 1 2 5v7l-2 3-4-1 1-7-4-2-3-9z" fill="#FDB82A"/>
<path transform="translate(737,440)" d="m0 0h1l2 23h2l3 12 4 5 5-1 5-3-1 4-3 3-6 1-5-4-4-10-3-15z" fill="#E0723D"/>
<path transform="translate(300,398)" d="m0 0 1 3-7 22-2 7-1-4-1-10 6-16z" fill="#F6B613"/>
<path transform="translate(1037,959)" d="m0 0 4 1-2 1v60h-1l-1-28-2-14v-16z" fill="#F4B017"/>
<path transform="translate(1007,813)" d="m0 0 6 1 10 4 3 2 5 1 6 1 3-1 3 1-2 5-4 1-11-5-19-8z" fill="#FED50D"/>
<path transform="translate(301,662)" d="m0 0h1l1 6-5 5-10 8-14 11h-3l7-8h2v-2l8-5 9-9 3-2z" fill="#F5B511"/>
<path transform="translate(736,518)" d="m0 0 6 3 6 8 10 7 2 2h-4v2h2l-1 3-2-4-3-1v-2h-3l-3-3-3-4-2 1-2-6-3-3z" fill="#D13939"/>
<path transform="translate(1016,1029)" d="m0 0 5 2 7 8 6 6 1 5-4-1v-2l-4-2v-2l-4-2v-2l-4-2v-2h-2v-2h-2l-1-3z" fill="#CC2D37"/>
<path transform="translate(853,889)" d="m0 0 7 2-1 8-4 7-3 1-2-2 1-8z" fill="#FCE301"/>
<path transform="translate(569,877)" d="m0 0h11l-1 2h-2l-2 7 2 2-1 4-3 2-2-1-2-9z" fill="#FBDE02"/>
<path transform="translate(331,622)" d="m0 0h15l2 1v4l2-2 1 4-3 1-1 3-5-2-1 2-4-8-5-1z" fill="#D13139"/>
<path transform="translate(827,718)" d="m0 0v3l-6 5-8 8h-2v2l-11 8-8 6-7 4-2-1 10-8 13-9 14-12z" fill="#E3843D"/>
<path transform="translate(279,587)" d="m0 0 3 1 3 9 6 31 3 10v4h-2l-6-25-2-7-3-17z" fill="#E9922D"/>
<path transform="translate(404,446)" d="m0 0 1 3-7 28-1 5-1 16h-2v8l-1 5h-1v-10l4-25 5-22z" fill="#E4843E"/>
<path transform="translate(667,610)" d="m0 0 8 1 1 4-2 13-4-1-2-4v-8z" fill="#E08E28"/>
<path transform="translate(555,437)" d="m0 0h6l-3 4v5l1-4 5-4 1 1-1 9-4 4h-5z" fill="#FBF0EB"/>
<path transform="translate(589,522)" d="m0 0 2 1-2 6-8 11-4 2h-3l2-5 9-11 3-1z" fill="#F8B025"/>
<path transform="translate(519,303)" d="m0 0 2 1-3 3h-2v2l-11 7-5 5h-4v2l-5 3v-3l5-4 4-6 8-2 1-3 9-4z" fill="#EC971F"/>
<path transform="translate(902,241)" d="m0 0 7 6 8 7v2l4 2 7 8 5 6 5 5 6 7-1 2-14-15-7-8-20-20z" fill="#E08D2B"/>
<path transform="translate(980,973)" d="m0 0h2l-1 6-3 6-1 4-4 5-3-1-1-4 5-5v-3l4-6z" fill="#FCE102"/>
<path transform="translate(649,520)" d="m0 0h8l2 1v2l3 1-2 2-3 10-8 1-4-1-4-6 1-6h3l-1 1v7l3 1h7l2-7-1-4-6-1z" fill="#FEC954"/>
<path transform="translate(533,425)" d="m0 0h33v2h6l1 4-1 1h-8v-5h-24l-7-1z" fill="#DB623B"/>
<path transform="translate(337,1009)" d="m0 0 5 2 4 4 4 2 1 5-1 3h-5l-8-12z" fill="#FBDF03"/>
<path transform="translate(1036,614)" d="m0 0h2l-1 8-3 7-3 2-2 8-2 2-1-8 2-3h2l1-11z" fill="#FED606"/>
<path transform="translate(709,554)" d="m0 0h5l2 4-9 7h-6l-4-1 2-4 5-2 4-1z" fill="#FEB829"/>
<path transform="translate(655,505)" d="m0 0 4 1v5l-2 4-2 1h-6l-3-6 1-2z" fill="#FEC348"/>
<path transform="translate(506,432)" d="m0 0 12 1 5 1v1l-15-1-3 16 2 1-7 2-1-2 4-11 2-7z" fill="#E38139"/>
<path transform="translate(416,224)" d="m0 0 2 2v5l-3 3h-2v3l-5 3-10 9-9 8-2-1 18-18 10-8z" fill="#FCC704"/>
<path transform="translate(712,519)" d="m0 0h11l5 3-1 5-5-3-4-3-1 3-1 1h-11l2-4z" fill="#E08A2F"/>
<path transform="translate(879,288)" d="m0 0 7 2-5 5-8 7-5-2 1-3 8-8z" fill="#D2343A"/>
<path transform="translate(227,725)" d="m0 0 4 1 10 19 3 5-1 2-3-5-4-4 1-2h-2l-2-4-7-5z" fill="#FABD0F"/>
<path transform="translate(413,704)" d="m0 0 5 2-1 6-2 2-10-1-3-2h4l-1-3 3-3z" fill="#CF3438"/>
<path transform="translate(580,547)" d="m0 0h1l2 8 10 11 4 3-1 3-5-2-8-8-3-5v-2l-3-1 2-1z" fill="#E2813D"/>
<path transform="translate(1072,594)" d="m0 0h9l1 5-22 3 1-3 6-1 1-3z" fill="#FED609"/>
<path transform="translate(485,861)" d="m0 0 1 2 3 39 1 16-3 3-1-2 1-2-1-23-2-19v-13z" fill="#EB9727"/>
<path transform="translate(515,408)" d="m0 0h1v6l17 1v2h11v1l-31 1-1-10 2 3z" fill="#CE3F37"/>
<path transform="translate(407,891)" d="m0 0 3 6 2 14 2 8 4 25-1 4-4-20v-7h-2l-2-5-1-17z" fill="#EB9C22"/>
<path transform="translate(534,434)" d="m0 0h5l-1 15-5 1-1-2v-13z" fill="#FBF0EB"/>
<path transform="translate(583,417)" d="m0 0h11l2 6-3 1h-11l-1-5z" fill="#FDF8F6"/>
<path transform="translate(570,851)" d="m0 0h3l2 4v7l-4 4h-3v-14z" fill="#FBE202"/>
<path transform="translate(983,787)" d="m0 0 5 1 27 11 7 3 11 5 2-5 1 2-2 4-6-1-36-15-9-4z" fill="#E88F2C"/>
<path transform="translate(846,362)" d="m0 0h2l4 5v2h2l10 15 4 5 4 7 4 8-2 1-8-14v-2h-2l-4-7-14-18z" fill="#E4843E"/>
<path transform="translate(598,436)" d="m0 0h5v14l-3 3h-5v-3l4 1-1-5-1-9z" fill="#FEFDFE"/>
<path transform="translate(582,520)" d="m0 0h15l4 2v2l-8 1-3 2v-3l-1-1-2 2v-2l-8 4-2-1 2-4z" fill="#E3833C"/>
<path transform="translate(777,305)" d="m0 0 6 1v2l5 2 11 7 10 7 7 7h-3l-10-8-11-7v-2l-5-2-10-6z" fill="#E4843E"/>
<path transform="translate(953,514)" d="m0 0h27l7 1 7-1 3 3-1 4h-3l-5-3-12-2-23-1z" fill="#D3373A"/>
<path transform="translate(907,910)" d="m0 0 4 2-2 6-4 7-4 1v-7l2-5z" fill="#FDE501"/>
<path transform="translate(640,529)" d="m0 0 5 5 2 4 9 3 1 3h-9l-2-1v-2h-2l-2-4-3-2z" fill="#FDC015"/>
<path transform="translate(516,456)" d="m0 0h27l-1 3-10 1h-8v-2l-8 1z" fill="#FEFDFE"/>
<path transform="translate(740,190)" d="m0 0 3 2h3l1 4-2 4-5 2-2 4-1-3 3-7-5 2 2-4z" fill="#D1313A"/>
<path transform="translate(599,139)" d="m0 0h1v7l-2 5-13 3-18 4h-5l4-3 8-3h9l10-2h4l1-6z" fill="#F0A421"/>
<path transform="translate(641,495)" d="m0 0 3 1-1 7 2 1 4 10v2l3 1-6 1-7-15v-6z" fill="#E28533"/>
<path transform="translate(570,276)" d="m0 0 3 1-10 4-14 6-22 11-2-1 10-6 21-10z" fill="#E4843E"/>
<path transform="translate(644,720)" d="m0 0 6 6 2 6-3 2-5-3-3-4v-5z" fill="#EF991E"/>
<path transform="translate(267,693)" d="m0 0 4 1-12 10-8 6h-2l2-4 6-6h2v-2l4-2 1-2z" fill="#F5B50F"/>
<path transform="translate(695,854)" d="m0 0 3 1v15h-3l-3-7v-6l3-1z" fill="#FDE501"/>
<path transform="translate(458,231)" d="m0 0h9l4 4v2l4 2 2 4-2 1-11-8-3-2h-4z" fill="#D5413E"/>
<path transform="translate(993,853)" d="m0 0 5 1 6 4-1 5-2 2h-4l-2-5-2-4z" fill="#FDE301"/>
<path transform="translate(989,849)" d="m0 0 10 4 4 4-10-4 3 7 1 5 2 1-1 2 3 1-1 4-4-7-7-13z" fill="#EFAD15"/>
<path transform="translate(635,684)" d="m0 0h4v15l7-1-4 3-5 1-2-3z" fill="#FCB833"/>
<path transform="translate(655,629)" d="m0 0 14 2 2 2-11 4-5-2-1-5z" fill="#EF991E"/>
<path transform="translate(653,601)" d="m0 0 16 2 7 1 1 2-21-2v2l3 1v1h-10v-3l4-2z" fill="#EF9A1E"/>
<path transform="translate(671,543)" d="m0 0 10 3h9l-1 4-2 1h-8l-5-3-3-3z" fill="#C12931"/>
<path transform="translate(764,427)" d="m0 0 7 4 15 7 14 5-4 1-8-3-9-2-6-3-3-3-6-2z" fill="#D5473A"/>
<path transform="translate(324,993)" d="m0 0 9 2 4 6-2 5-4-2z" fill="#FBDD03"/>
<path transform="translate(481,894)" d="m0 0h1v9l-2 1h-7l-1-1v-5l6-3 3 1z" fill="#FCE002"/>
<path transform="translate(455,880)" d="m0 0 6 1 2 4v6l-2 1v-2l-4-1-4-5v-3z" fill="#FACC06"/>
<path transform="translate(576,523)" d="m0 0h3l-2 5-6 6h-5l-5 5-4-1 14-11z" fill="#E69421"/>
<path transform="translate(566,439)" d="m0 0h1v9l-4 7-5 1-6-1 1-3 7-1 3-1 2-10z" fill="#D6473A"/>
<path transform="translate(852,354)" d="m0 0 5 4 12 17 10 15 1 4-4-4-7-11-10-14-7-9z" fill="#E4843E"/>
<path transform="translate(683,866)" d="m0 0 3 2 4 16v4h-2l-2-9-2-1-2 8-1-4z" fill="#F1AC17"/>
<path transform="translate(486,324)" d="m0 0 2 1-32 32v-3l10-10 7-8 8-7z" fill="#E18933"/>
<path transform="translate(636,541)" d="m0 0v3l-7 6-3 1h-8l-1-5 1 2 12-4z" fill="#BD292F"/>
<path transform="translate(908,477)" d="m0 0 3 2 2 12v12h-2l-2-13-1-5z" fill="#EF991E"/>
<path transform="translate(688,551)" d="m0 0h8l1 4-1 3-5 3h-8l4-2 2-3v-3l-3-1z" fill="#FEB929"/>
<path transform="translate(745,850)" d="m0 0h7l5 3-1 36v4l-2 1 1-40-10-3z" fill="#E69822"/>
<path transform="translate(657,665)" d="m0 0 7 1 1 3-1 5h-7l-1-8z" fill="#FFC953"/>
<path transform="translate(805,820)" d="m0 0 7 1 7 2h10l1 2v1l1 2-9-1-17-5z" fill="#C82B35"/>
<path transform="translate(642,664)" d="m0 0 8 1v8l-6 1-3-9z" fill="#FFC953"/>
<path transform="translate(641,525)" d="m0 0 1 2-2 5v8l-10 5-2-1 5-3h2l-1-7-1-2 3 1 3-6z" fill="#E27D38"/>
<path transform="translate(598,871)" d="m0 0 2 3 1 10-3 7-2-4v-14z" fill="#FDE701"/>
<path transform="translate(1046,586)" d="m0 0h14v1l-23 3-9 1-1 2 1-4 8-2z" fill="#E98F2C"/>
<path transform="translate(336,448)" d="m0 0 8 1v7l-2 3-7-6z" fill="#C13030"/>
<path transform="translate(894,378)" d="m0 0 4 4 5 6 5 2h7l10-4 2 1-9 5h-11l-8-3-5-7z" fill="#D5403A"/>
<path transform="translate(394,549)" d="m0 0 4 4 1-2-1 7 2 1-1 5-5 1z" fill="#DE9022"/>
<path transform="translate(729,545)" d="m0 0 3 1 5 6-2 2-9 2-3 1 1-3 3-2z" fill="#BD292F"/>
<path transform="translate(1039,1024)" d="m0 0h1v27l-7-6-2-3 4 1v-2l3-1z" fill="#EFAE17"/>
<path transform="translate(963,454)" d="m0 0h12l2 2-8 4-6 2 1-5z" fill="#D74A3B"/>
<path transform="translate(521,405)" d="m0 0 26 1 3 2h-27z" fill="#D43D3A"/>
<path transform="translate(278,929)" d="m0 0h3l7 11 3 4-1 3-5-4-6-10z" fill="#CD2C38"/>
<path transform="translate(838,890)" d="m0 0 2 1 1 4-3 6-4 4h-5l-1-1 1-7 2-6h1v6l-1 5h4v-2l2-1z" fill="#EBAA15"/>
<path transform="translate(890,837)" d="m0 0 6 5v2h6l2 4h2l-1 3-12-6-3-5z" fill="#F6BA0B"/>
<path transform="translate(929,813)" d="m0 0h2l-2 4-8 8-5 2 3-7 8-6z" fill="#FED411"/>
<path transform="translate(407,466)" d="m0 0 2 1v4h-2l-2 11-4-8-2-1 2-5 4 1z" fill="#EF981F"/>
<path transform="translate(706,443)" d="m0 0 4 1-13 4-11 1-1-5 7 1 11-1z" fill="#D9643A"/>
<path transform="translate(1028,418)" d="m0 0h1l3 15 2 4h2l-1 3-5-4-3-2v-15z" fill="#FDD603"/>
<path transform="translate(793,395)" d="m0 0 2 1-8 6-3 3 3 4h-10v-2h4l1-6 7-5z" fill="#E0763E"/>
<path transform="translate(394,165)" d="m0 0 3 4 8 20 4 9v3h-2l-5-13v-3h-2l-6-17z" fill="#E9922D"/>
<path transform="translate(767,867)" d="m0 0 2 1-11 22-3-1 1-8 3-1 1 1z" fill="#F7C20A"/>
<path transform="translate(353,438)" d="m0 0 23 5 1 2h-7l-15-3v-2l-4-1z" fill="#C53732"/>
<path transform="translate(821,225)" d="m0 0 6 2v5l-5 2-3 3-2-1 3-9z" fill="#CD3137"/>
<path transform="translate(626,536)" d="m0 0h3l-1 4 3-1v2l-3 1v4h-5l-2-2 1-4z" fill="#EB9620"/>
<path transform="translate(569,436)" d="m0 0 2 1v2l3-1-2 14h2v4l-6-1 1-3z" fill="#E27B3D"/>
<path transform="translate(710,396)" d="m0 0 4 1 8 5h2l2-2v7l-5 1-4 2 2-6-9-7z" fill="#C53133"/>
<path transform="translate(717,854)" d="m0 0 1 3h2v12l-3-1-2-5-1-8z" fill="#FDE701"/>
<path transform="translate(642,686)" d="m0 0 8 1v8l-3 1-5-4z" fill="#FDC550"/>
<path transform="translate(416,945)" d="m0 0 1 3h2l1 2 4 2-7 2-1 2-5 1 1-2h2l-3-9 3 3z" fill="#F4B60E"/>
<path transform="translate(660,687)" d="m0 0 4 1-2 7-4 2-2-1v-7z" fill="#FFC953"/>
<path transform="translate(809,429)" d="m0 0 4 1 5 9v6l-2 2h-11l-4-3 15 1-1-7-6-7z" fill="#D2313A"/>
<path transform="translate(719,92)" d="m0 0h2l1 2 2 20-3-1-2-11z" fill="#FDC910"/>
<path transform="translate(947,874)" d="m0 0 4 1 4 8 2 2-5-1-7-4v-5z" fill="#C82B35"/>
<path transform="translate(696,555)" d="m0 0 1 3 2 1-1 4 4 1 2 2-5 1-8-5 1-3 4-1z" fill="#EC981E"/>
<path transform="translate(719,534)" d="m0 0 4 1 4 2 5 7v2h-3l-2 7-1-3 1-7-8-8z" fill="#DF8E28"/>
<path transform="translate(611,57)" d="m0 0 1 3-4 27h-1v-21h2l1-8z" fill="#F3AE16"/>
<path transform="translate(303,845)" d="m0 0 2 1-1 2h-2l-2 5-7 3-2-4 7-4z" fill="#F6CE0A"/>
<path transform="translate(630,609)" d="m0 0 3 1-1 5-4-3-1 8-2 1v-3h-3l1-5z" fill="#FDBD38"/>
<path transform="translate(573,539)" d="m0 0 2 1-1 2 6-2-2 4-7 7-1-3 1-4-2-1z" fill="#EB9426"/>
<path transform="translate(531,438)" d="m0 0h1l1 12 2 1-4 2 3 2h-9v-2l3-1 2-10z" fill="#E0733D"/>
<path transform="translate(589,405)" d="m0 0 3 1v7l-1 1h-8l1-5 4-2z" fill="#FEFDFE"/>
<path transform="translate(845,831)" d="m0 0 9 1-2 2 8 2 2-1 1 4-8-1-12-5z" fill="#CC2C37"/>
<path transform="translate(640,471)" d="m0 0 3 1-5 5v8l1 4 9 2-4 2-5-2-4-7v-6l4-6z" fill="#BD292F"/>
<path transform="translate(897,606)" d="m0 0h1l1 7-3 9h-2l-2-5 4-10z" fill="#E08C2C"/>
<path transform="translate(543,435)" d="m0 0h12l1 2-2 5-1-2h-6l-1-3-3-1z" fill="#DE6940"/>
<path transform="translate(1e3 852)" d="m0 0 6 2 4 3v3h-6l-5-5z" fill="#CF2C38"/>
<path transform="translate(675,642)" d="m0 0 3 1 2 5-5 5-5-1 1-6 5 1z" fill="#FEB929"/>
<path transform="translate(652,549)" d="m0 0 4 1v11h-4l-1-11z" fill="#FFC954"/>
<path transform="translate(689,362)" d="m0 0h9l15 6v1l-7-1-8-3h-12l-1-2z" fill="#CC3536"/>
<path transform="translate(808,361)" d="m0 0h7l4 3 1 7-3 3 1-5-4-4-11-2v-1z" fill="#E2803D"/>
<path transform="translate(552,542)" d="m0 0h2l2 5-2 3-9-3-3-2 8-2z" fill="#F4A431"/>
<path transform="translate(410,237)" d="m0 0 2 1-7 7-16 14v-3l15-14z" fill="#E89127"/>
<path transform="translate(360,618)" d="m0 0 4 1 2 4-2 1-8-2h-10v-1z" fill="#D23E39"/>
<path transform="translate(258,279)" d="m0 0h2l-2 5-8 14-2-4 1-2h2l1-4 3-5z" fill="#F6B60F"/>
<path transform="translate(802,880)" d="m0 0h4l1 3-1 3h2v2h-8v-6z" fill="#FDE401"/>
<path transform="translate(639,662)" d="m0 0 3 3 2 9h-3l-2-6-2 2-2 3-2-6 7-1z" fill="#E99620"/>
<path transform="translate(418,904)" d="m0 0 3 1 5 9h-3v6l-2-3-3-9z" fill="#DF8F26"/>
<path transform="translate(644,646)" d="m0 0h4l1 6-1 1-7-1-1-4h4z" fill="#FFC13E"/>
<path transform="translate(670,641)" d="m0 0h9l1 5-4-3 1 4-2 1-4-2-1 3z" fill="#F09A1E"/>
<path transform="translate(628,612)" d="m0 0 3 1-1 11 2 4h-3v-2h-2v-2l-2-1 1-1z" fill="#EC991F"/>
<path transform="translate(744,475)" d="m0 0 5 5 5-1 5-3-1 4-3 3-6 1-2-1-3-6z" fill="#DA5E3B"/>
<path transform="translate(1016,1029)" d="m0 0 5 2 3 3-1 5-4-2v-2h-2v-2h-2l-1-3z" fill="#CB3136"/>
<path transform="translate(857,972)" d="m0 0 5 1 7 3 1 3-3 1-1 2-2-3v-3h-6z" fill="#FDE701"/>
<path transform="translate(868,917)" d="m0 0 3 3 3-2 1 6-1 4-1 6h-1l-4-14z" fill="#F8C40A"/>
<path transform="translate(228,581)" d="m0 0h9l13 2v1l-18 1z" fill="#FDC705"/>
<path transform="translate(655,505)" d="m0 0 4 1-1 4-6 1-3 2-1-5z" fill="#FDD403"/>
<path transform="translate(736,432)" d="m0 0 3 1 2 30-2-3-2-20-1-2z" fill="#D03D38"/>
<path transform="translate(542,438)" d="m0 0 4 1-1 9-4 1v-10z" fill="#FEFDFE"/>
<path transform="translate(523,298)" d="m0 0 2 1-5 3-5 5-6 2-3 3-4 1 5-5z" fill="#E28735"/>
<path transform="translate(939,934)" d="m0 0h1l-1 12-1 10h-1v-12l1-6h-7l-1-2z" fill="#EDA817"/>
<path transform="translate(362,793)" d="m0 0 4 1 3 4v5l-2 1-5-6z" fill="#FDD206"/>
<path transform="translate(645,731)" d="m0 0 5 2h2l1-2 2 2v10l-2 1-2-8-4-2z" fill="#DA6E39"/>
<path transform="translate(712,519)" d="m0 0h11l5 3-1 5-10-6-5-1z" fill="#E4843E"/>
<path transform="translate(1029,465)" d="m0 0h5l1 5-3 3-4-1-1-4z" fill="#FDD603"/>
<path transform="translate(577,420)" d="m0 0h3l-1 4-1 2h-4v2l-8-1 1-3h10z" fill="#D03A3A"/>
<path transform="translate(925,264)" d="m0 0 7 6 7 8 5 6-1 2-14-15-4-5z" fill="#E28F28"/>
<path transform="translate(640,686)" d="m0 0 2 3v3h2v3h-2l1 3-5 2 1-11z" fill="#DA6F3A"/>
<path transform="translate(667,685)" d="m0 0 4 1 1 4-1 6h-4z" fill="#FFBA2B"/>
<path transform="translate(690,41)" d="m0 0h15l-2 4-11-1-2-1z" fill="#FDC804"/>
<path transform="translate(408,937)" d="m0 0 2 2v3h6l-1 8-5-4-3-6z" fill="#F7C808"/>
<path transform="translate(476,906)" d="m0 0 4 2 4 5h4l-1 6-4-2-7-10z" fill="#F4B70C"/>
<path transform="translate(564,805)" d="m0 0h6l-4 1v2l-23 1v-1z" fill="#F0A225"/>
<path transform="translate(643,523)" d="m0 0 2 1-1 1v7l10 2-1 3-8-1-4-6 1-6z" fill="#FCC55A"/>
<path transform="translate(776,400)" d="m0 0 1 3 6-1-2 5h-4l-1 4-3-1z" fill="#CD3F36"/>
<path transform="translate(803,363)" d="m0 0h7l-2 2-10 2-5 2h-3l1-3 5-2z" fill="#D55838"/>
<path transform="translate(739,352)" d="m0 0h1l-1 21-2-1v-14z" fill="#DE6B3C"/>
<path transform="translate(247,298)" d="m0 0h2l-2 5-7 12h-1v-6l3-3 4-7z" fill="#F6B216"/>
<path transform="translate(389,938)" d="m0 0h5l2 3-1 3v-2l-6-1-3 3-2 4-1-6z" fill="#F1B810"/>
<path transform="translate(494,876)" d="m0 0h2l6 10-1 2-4-3-1 4-2-8z" fill="#E08F26"/>
<path transform="translate(398,834)" d="m0 0h5l1 5-6 3-3-1z" fill="#FDDC06"/>
<path transform="translate(630,621)" d="m0 0 5 4v3l-5 2-7-1-1-2h9l-2-5z" fill="#FDC040"/>
<path transform="translate(656,582)" d="m0 0h1v8l-1 7-3-2v-10z" fill="#FFCA55"/>
<path transform="translate(662,519)" d="m0 0 6 4h14v1l-16 1-1 3v-3l-6-2 1-2h2z" fill="#E4843B"/>
<path transform="translate(289,434)" d="m0 0h1l-1 8-4 19h-1v-11z" fill="#EC9A2A"/>
<path transform="translate(560,435)" d="m0 0 7 1v2l-4 1-2 3h-2l-1 5h-1v-6l3-4z" fill="#E78F66"/>
<path transform="translate(560,156)" d="m0 0 2 1v2l-10 3h-4l1-3 5-2z" fill="#F4B410"/>
<path transform="translate(928,970)" d="m0 0 1 2-3 8h-4l-2 1 2-5 3-5z" fill="#FDE601"/>
<path transform="translate(568,439)" d="m0 0h2v13l-1 2h-3v-6l1-1z" fill="#F9E2D6"/>
<path transform="translate(696,384)" d="m0 0 4 2 11 9-2 2-8-7-7-4z" fill="#CF3E37"/>
<path transform="translate(590,352)" d="m0 0h7v12l-3-2v-7l-4-1z" fill="#BF2930"/>
<path transform="translate(710,781)" d="m0 0m-4 1h4v2l-11 2h-13v-1z" fill="#E78E4B"/>
<path transform="translate(865,740)" d="m0 0 5 1 3 1 1 6-1 12h-1l-1-12-2-3v-3z" fill="#D5443A"/>
<path transform="translate(635,713)" d="m0 0h3l2 3v7l-3 1v-6h-3z" fill="#F8AD2B"/>
<path transform="translate(671,611)" d="m0 0h4l1 4-2 13-3-2 1-3v-10z" fill="#F09A1E"/>
<path transform="translate(591,439)" d="m0 0 4 1 1 1v6l-5 2z" fill="#FAEBE3"/>
<path transform="translate(356,941)" d="m0 0 2 2v9h7v3h-8l-1-1z" fill="#F2B610"/>
<path transform="translate(855,929)" d="m0 0 1 2h2l1 4h-2v3h-5v-3z" fill="#FDE501"/>
<path transform="translate(911,914)" d="m0 0h6v2l-6 2-2 7 6 1v5l-1-4h-5l-1-1v-8z" fill="#F1AD17"/>
<path transform="translate(798,890)" d="m0 0h8l3 1v7l-1 5-3-1 1-8v-2l-8-1z" fill="#F2B113"/>
<path transform="translate(667,782)" d="m0 0 5 2 3 4-9 1-1-3h2z" fill="#FDD503"/>
<path transform="translate(633,685)" d="m0 0h2l1 14-4-4-1-9z" fill="#EB9A20"/>
<path transform="translate(301,662)" d="m0 0h1l1 6-5 5-5 3 1-4 6-6z" fill="#F2AD16"/>
<path transform="translate(663,489)" d="m0 0 1 3-2 4-5-3-6-1v-2z" fill="#BD292F"/>
<path transform="translate(581,439)" d="m0 0h2v9l-2 4h-3l2-10z" fill="#FDF9F9"/>
<path transform="translate(185,935)" d="m0 0h2v2l3 1v2h8l5 1v1l-14-1-6-2z" fill="#F3A624"/>
<path transform="translate(698,861)" d="m0 0h1v12l-1 7-2-2-2-10 1 2h3z" fill="#E49322"/>
<path transform="translate(669,562)" d="m0 0h18l5 2v1l-16-1-7-1z" fill="#BD292F"/>
<path transform="translate(690,547)" d="m0 0 5 1 1 3-8 1h-10l-2-2h11z" fill="#EA922D"/>
<path transform="translate(580,418)" d="m0 0 2 1 1 5 8 1v1l-7 1h-10l4-1z" fill="#DE7945"/>
<path transform="translate(948,943)" d="m0 0h1v7l3 1-1 4-5 1z" fill="#EEB212"/>
<path transform="translate(692,861)" d="m0 0 5 1 1 1v7h-3l-3-7z" fill="#FAC806"/>
<path transform="translate(989,849)" d="m0 0 10 4 4 4-10-4-2 4-2-4z" fill="#EA9F1F"/>
<path transform="translate(638,711)" d="m0 0 4 5v11l2 3-4-1-2-6h2l-1-7-1-3-2-1z" fill="#E08B2E"/>
<path transform="translate(288,622)" d="m0 0h2l4 16v4h-2l-4-15z" fill="#ED992B"/>
<path transform="translate(970,417)" d="m0 0 3 1-9 4h-2v2l-4 1-1-2-2-1 2-2h6z" fill="#D74B43"/>
<path transform="translate(737,372)" d="m0 0 2 1 1 6-4 1-1 3-5-5 1-2h5z" fill="#E68D4D"/>
<path transform="translate(593,269)" d="m0 0 4 1-4 2-13 3-1 1h-6l2-2z" fill="#E4843E"/>
<path transform="translate(427,936)" d="m0 0h2v2h2v10h-2l-2-5z" fill="#F2B30F"/>
<path transform="translate(751,544)" d="m0 0h6l8 2-9 3-2 1-3-4z" fill="#F5A72F"/>
<path transform="translate(708,524)" d="m0 0 7 2 4 5-2 1-10-5z" fill="#C22A31"/>
<path transform="translate(549,440)" d="m0 0h3v8l-4 2v-9z" fill="#FEFDFE"/>
<path transform="translate(800,419)" d="m0 0 5 3 6 7-5-1-6-6z" fill="#DC5F3C"/>
<path transform="translate(425,398)" d="m0 0 1 3-3 7-1 2h-2l-1 6-3 2 3-9z" fill="#E18833"/>
<path transform="translate(716,408)" d="m0 0v3l-14 11-2 1 2-4 7-6z" fill="#C02931"/>
<path transform="translate(582,405)" d="m0 0h6v3l-6 2-6-3v-1z" fill="#D85A3F"/>
<path transform="translate(661,887)" d="m0 0 3 1v5l-6 2 1-7z" fill="#FDE301"/>
<path transform="translate(938,612)" d="m0 0h8v4l-6 1-2-1z" fill="#BD292F"/>
<path transform="translate(624,525)" d="m0 0 9 2 3 3-1 3-7-4-5-1z" fill="#D12D3A"/>
<path transform="translate(552,440)" d="m0 0h3v11l-5-1z" fill="#EFAF88"/>
<path transform="translate(646,871)" d="m0 0h1v17l-1 1h-9v-1h7z" fill="#FAC50A"/>
<path transform="translate(888,637)" d="m0 0 1 4-1 4h-2l-1 4-1 2h-2l1-5z" fill="#DE9122"/>
<path transform="translate(947,477)" d="m0 0 2 3 14 1v1h-18l-4-2z" fill="#E4843E"/>
<path transform="translate(591,453)" d="m0 0 11 1-4 2h-14l2-2z" fill="#DF713C"/>
<path transform="translate(869,299)" d="m0 0 3 2-2 4-2 2-4-1 2-5z" fill="#C12E31"/>
<path transform="translate(592,849)" d="m0 0 3 4 2 7-3 1-1 2z" fill="#FDE701"/>
<path transform="translate(664,497)" d="m0 0 3 2v6l-3 5-1-2v-3-7z" fill="#E4843E"/>
<path transform="translate(444,689)" d="m0 0 5 2 1 3h2l-1 2h-4l-3-4z" fill="#DF8C2A"/>
<path transform="translate(247,458)" d="m0 0 3 1-2 3h-9l-4-2z" fill="#FED414"/>
<path transform="translate(433,385)" d="m0 0 2 1v3h-2l-2 6h-2l-1 3-2-1z" fill="#E08B2E"/>
<path transform="translate(855,256)" d="m0 0 3 1-3 8-3-3-3-2z" fill="#E3813D"/>
<path transform="translate(1037,959)" d="m0 0 4 1-2 1-1 22h-1l-1-23z" fill="#F09F1C"/>
<path transform="translate(925,934)" d="m0 0 4 2h-3l-1 6-4 7-2-1z" fill="#EFAB13"/>
<path transform="translate(335,930)" d="m0 0h13l3 2-1 2-3-2h-7l-8 2z" fill="#EFA717"/>
<path transform="translate(853,702)" d="m0 0 2 1-10 12v-3l4-7 1-2z" fill="#E4843E"/>
<path transform="translate(695,548)" d="m0 0 5 4 2 5-5 1z" fill="#E4843E"/>
<path transform="translate(749,541)" d="m0 0 5 1 2 2h-5l2 4-4-2-3-2v-2z" fill="#EB9523"/>
<path transform="translate(193,480)" d="m0 0 15 1v1l-17 2v-2h2z" fill="#F3B310"/>
<path transform="translate(575,439)" d="m0 0h1v9l-1 3h-2v-11z" fill="#FCF4F1"/>
<path transform="translate(555,437)" d="m0 0h6l-3 4-1 7-2 1z" fill="#FCF4F1"/>
<path transform="translate(811,912)" d="m0 0 1 3-5 14h-1l1-9z" fill="#F5BA10"/>
<path transform="translate(869,906)" d="m0 0h5l4 3h4v2l-7-1-8-1v-2z" fill="#EDA81A"/>
<path transform="translate(531,900)" d="m0 0h1l2 10 8-1-1 2-9 1-1-3z" fill="#F2A81D"/>
<path transform="translate(709,882)" d="m0 0 4 5-4 8h-1v-9z" fill="#FDE701"/>
<path transform="translate(825,823)" d="m0 0 5 1-1 2 2 2-9-1v-3z" fill="#CD2C38"/>
<path transform="translate(235,736)" d="m0 0 3 3 6 11-1 2-3-5-4-4z" fill="#ED9E24"/>
<path transform="translate(297,668)" d="m0 0m-1 1m-1 1m-1 1m-1 1m-1 1 1 4-7 5v-3z" fill="#F6B80E"/>
<path transform="translate(609,452)" d="m0 0 3 3 1 8-2 1-10-1v-1l9-1v-6h-2z" fill="#E27E3D"/>
<path transform="translate(838,890)" d="m0 0 2 1 1 4-3 6-3 3h-2v-2h2v-2l2-1z" fill="#ECA816"/>
<path transform="translate(410,826)" d="m0 0 4 2 1 4-4 1-2-4z" fill="#FED703"/>
<path transform="translate(408,821)" d="m0 0 4 2 5 5 1 4-1 3h-2v-5l-7-8z" fill="#EA9E1F"/>
<path transform="translate(652,686)" d="m0 0h3v10l-2 1-1-3z" fill="#BD292F"/>
<path transform="translate(735,548)" d="m0 0 7 1v2l2 1-9 2 1-2z" fill="#F7AD29"/>
<path transform="translate(761,540)" d="m0 0 7 2-3 3-6-1z" fill="#CA2B36"/>
<path transform="translate(667,480)" d="m0 0h1l-1 8-2 9-2 1v-10l3-4z" fill="#D76739"/>
<path transform="translate(383,918)" d="m0 0 4 5-1 5-5 2 2-5h2v-3h-2z" fill="#F0AF14"/>
<path transform="translate(881,846)" d="m0 0 7 1 4 4-6-1-5-2z" fill="#C92B35"/>
<path transform="translate(669,667)" d="m0 0 3 1-1 7-3 1v-7z" fill="#E59420"/>
<path transform="translate(570,528)" d="m0 0v3l-7 5-2 3-4-1z" fill="#DF8D2A"/>
<path transform="translate(417,326)" d="m0 0h4v2l5 2v2l-9-3-5-1v-1z" fill="#D9523B"/>
<path transform="translate(872,909)" d="m0 0 10 2-3 2-4 2-3-4z" fill="#FDD403"/>
<path transform="translate(890,837)" d="m0 0 6 5 2 5-5-2-3-5z" fill="#EEA818"/>
<path transform="translate(402,725)" d="m0 0 3 3-1 6-2 2-1-3v-6z" fill="#D5433B"/>
<path transform="translate(633,671)" d="m0 0 5 5v2h-5l-1-4z" fill="#FFC953"/>
<path transform="translate(632,640)" d="m0 0h2v8l1 5h-2l-2-5z" fill="#EE9A1E"/>
<path transform="translate(664,503)" d="m0 0 1 3-4 6h-3l3-6 3-1z" fill="#D45E37"/>
<path transform="translate(641,495)" d="m0 0 3 1-1 7-3 1-1-3 1-5z" fill="#DE8F25"/>
<path transform="translate(570,447)" d="m0 0 2 3v2h2v4l-6-1z" fill="#D9533B"/>
<path transform="translate(790,366)" d="m0 0m-3 1h3l-1 3h-2v2l-5 1v-3z" fill="#E48641"/>
<path transform="translate(941,1024)" d="m0 0h5l2 2-1 4-3 1-2-5z" fill="#FCE102"/>
<path transform="translate(962,942)" d="m0 0h6l1 3h-7l-5 3v-3z" fill="#F4B414"/>
<path transform="translate(488,902)" d="m0 0h1l1 16-3 3-1-2 1-2z" fill="#E48B30"/>
<path transform="translate(510,907)" d="m0 0 4 4 1 2h8l-3 2h-7l-3-6z" fill="#F4AF18"/>
<path transform="translate(814,903)" d="m0 0 1 4-2 5h-2v-8z" fill="#F7C40A"/>
<path transform="translate(939,867)" d="m0 0 5 1 3 2v2h-7z" fill="#C33332"/>
<path transform="translate(622,614)" d="m0 0h6l-2 7-1-3h-3z" fill="#FFC850"/>
<path transform="translate(580,547)" d="m0 0h1l2 11-3-1v-2l-3-1 2-1z" fill="#E17D3C"/>
<path transform="translate(584,541)" d="m0 0 1 2-1 7-3 3v-8z" fill="#ED9629"/>
<path transform="translate(611,543)" d="m0 0 3 1 1-1h1v7h-5z" fill="#E59028"/>
<path transform="translate(618,533)" d="m0 0 8 3v1l-7 1-3 1 1-5z" fill="#ED981E"/>
<path transform="translate(640,529)" d="m0 0 4 4v5l-5-3z" fill="#FDB827"/>
<path transform="translate(589,522)" d="m0 0 2 1-2 6-4 1-1-3 4-2z" fill="#F8BA43"/>
</svg>
